<!-- Generated by IcoMoon.io -->
<svg version="1.1" xmlns="http://www.w3.org/2000/svg" width="133" height="32" viewBox="0 0 133 32">
<title>Vector-Smart-Object</title>
<path fill="#fff" d="M16.302 15.513c0 0.004 0 0.008 0 0.012 0 0.69-0.559 1.249-1.249 1.249s-1.249-0.559-1.249-1.249c0-0.69 0.559-1.249 1.249-1.249v0c0.002 0 0.004 0 0.006 0 0.684 0 1.239 0.553 1.243 1.236v0z"></path>
<path fill="#fff" d="M123.054 27.292c0 0.004 0 0.008 0 0.012 0 0.69-0.559 1.249-1.249 1.249s-1.249-0.559-1.249-1.249c0-0.689 0.559-1.248 1.248-1.249h0c0.002 0 0.004-0 0.007-0 0.684 0 1.239 0.553 1.243 1.236v0z"></path>
<path fill="#fff" d="M128.331 20.711c0.473-0.034 0.946-0.082 1.421-0.099 0.035-0.003 0.077-0.005 0.118-0.005 0.17 0 0.332 0.030 0.483 0.084l-0.010-0.003c0.469 0.207 0.904 0.471 1.371 0.675 0.451 0.173 0.837 0.428 1.155 0.749l0 0c0.174 0.162 0.311 0.362 0.398 0.587l0.004 0.011c0.042 0.216 0.065 0.464 0.065 0.717 0 0.109-0.004 0.217-0.013 0.324l0.001-0.014c-0.029 0.118-0.109 0.212-0.215 0.26l-0.002 0.001c-0.358 0.17-0.786 0.331-1.229 0.456l-0.060 0.015c-0.803 0.19-1.617 0.36-2.438 0.473q-1.905 0.263-3.828 0.429c-0.843 0.076-1.695 0.076-2.544 0.090-0.242-0.004-0.473-0.050-0.686-0.129l0.014 0.005c-1.057-0.364-2.114-0.728-3.157-1.121-0.733-0.266-1.331-0.528-1.91-0.823l0.097 0.045c-0.508-0.24-0.862-0.733-0.899-1.312l-0-0.005c-0.003-0.026-0.004-0.057-0.004-0.087 0-0.413 0.294-0.757 0.685-0.834l0.005-0.001c0.499-0.152 1.005-0.062 1.497-0.18 0.004-0.038 0.006-0.081 0.006-0.125 0-0.063-0.005-0.126-0.014-0.186l0.001 0.007c-0.029-0.066-0.087-0.114-0.157-0.131l-0.002-0c-0.113-0.011-0.245-0.018-0.378-0.018-0.041 0-0.082 0.001-0.122 0.002l0.006-0c-0.686-0.006-0.982-0.162-1.186-0.744-0.152-0.396-0.268-0.857-0.328-1.336l-0.003-0.030c-0.125-1.187-0.209-2.377-0.29-3.567-0.031-0.472-0.020-0.946-0.006-1.419-0.002-0.311-0.083-0.602-0.223-0.857l0.005 0.009c-0.191-0.392 0.197-0.762 0.578-0.858 0.834-0.194 1.791-0.305 2.775-0.305 0.032 0 0.063 0 0.095 0l-0.005-0c0.971-0.025 1.946-0.021 2.917-0.053 0.495-0.026 1.075-0.041 1.658-0.041 1.199 0 2.382 0.063 3.548 0.187l-0.145-0.012c0.642 0.076 1.282 0.186 1.921 0.296 0.173 0.033 0.327 0.099 0.461 0.191l-0.004-0.003c0.383 0.248 0.644 0.655 0.691 1.126l0 0.006c0.082 0.75 0.248 1.496 0.28 2.246 0 0.019 0 0.042 0 0.066 0 0.711-0.043 1.412-0.126 2.101l0.008-0.083c-0.017 0.402-0.072 0.782-0.161 1.148l0.008-0.040c-0.129 0.429-0.378 0.79-0.708 1.053l-0.004 0.003c-0.368 0.336-0.822 0.586-1.324 0.712l-0.021 0.005c-0.069 0.015-0.094 0.175-0.141 0.269zM124.517 19.988v-0.039c0.561 0 1.122 0.008 1.682 0 0.453-0.008 0.907-0.018 1.355-0.068 0.538-0.059 1.067-0.163 1.606-0.242 0.311-0.043 0.577-0.206 0.755-0.44l0.002-0.003c0.291-0.408 0.469-0.914 0.48-1.461l0-0.003c0.095-0.578 0.15-1.244 0.15-1.923 0-0.458-0.025-0.911-0.073-1.356l0.005 0.055c0-0.009 0-0.020 0-0.032 0-0.578-0.157-1.119-0.431-1.583l0.008 0.015c-0.011-0.014 0-0.042 0-0.063 0.030-0.196-0.117-0.305-0.289-0.353-0.22-0.076-0.473-0.126-0.737-0.138l-0.006-0c-0.907 0.005-1.813 0.069-2.72 0.053-1.896-0.032-3.792-0.095-5.688-0.152-0.344-0.023-0.745-0.037-1.149-0.037-0.726 0-1.442 0.043-2.146 0.126l0.085-0.008c-0.297 0.043-0.408 0.141-0.401 0.397 0.020 0.717 0.037 1.435 0.064 2.152 0.043 1.074 0.087 2.149 0.144 3.223 0.012 0.401 0.062 0.783 0.146 1.152l-0.008-0.040c0.065 0.202 0.193 0.368 0.361 0.479l0.003 0.002c0.305 0.186 0.675 0.296 1.070 0.296 0.035 0 0.069-0.001 0.103-0.003l-0.005 0c0.88 0 1.761-0.004 2.64-0.005q1.499-0.007 2.995-0.005zM122.923 24.444c0.148 0 0.296 0.011 0.443 0 1.067-0.091 2.133-0.18 3.2-0.283 1.228-0.119 2.455-0.255 3.683-0.381 0.902-0.054 1.746-0.201 2.554-0.433l-0.083 0.020c0.323-0.106 0.464-0.305 0.402-0.602-0.152-0.469-0.493-0.84-0.931-1.028l-0.011-0.004c-0.457-0.258-0.94-0.472-1.417-0.697-0.296-0.17-0.65-0.271-1.028-0.271-0.014 0-0.027 0-0.041 0l0.002-0c-0.985 0.071-1.971 0.117-2.958 0.165-0.131 0.016-0.284 0.025-0.438 0.025-0.183 0-0.363-0.012-0.539-0.037l0.020 0.002c-0.371-0.087-0.797-0.138-1.235-0.138-0.027 0-0.054 0-0.081 0.001l0.004-0c-0.944 0.024-1.889 0.013-2.834 0.019-0.002 0-0.004 0-0.006 0-0.17 0-0.337 0.010-0.502 0.029l0.020-0.002c-0.229 0.028-0.457 0.072-0.68 0.106-0.347 0.054-0.696 0.1-1.042 0.16-0.143 0.052-0.31 0.092-0.484 0.113l-0.011 0.001c-0.068-0.003-0.147-0.005-0.227-0.005-0.549 0-1.078 0.081-1.577 0.233l0.038-0.010c-0.267 0.069-0.366 0.335-0.167 0.504 0.114 0.076 0.244 0.142 0.383 0.192l0.012 0.004c0.427 0.202 0.854 0.402 1.279 0.605 0.946 0.451 1.905 0.885 2.827 1.364 0.409 0.219 0.894 0.347 1.409 0.347 0.004 0 0.008 0 0.013-0h-0.001zM116.729 21.796c-0.034 0.011-0.066 0.021-0.099 0.030-0.001 0.020-0.001 0.044-0.001 0.067 0 0.145 0.016 0.286 0.047 0.422l-0.002-0.013c0.172 0.494 0.534 0.884 0.997 1.088l0.012 0.005c1.101 0.518 2.472 1.052 3.88 1.503l0.258 0.071c0.498 0.194 1.075 0.306 1.678 0.306 0.080 0 0.159-0.002 0.237-0.006l-0.011 0c1.206-0.102 2.418-0.156 3.624-0.257 0.647-0.054 1.289-0.152 1.928-0.25 0.768-0.12 1.531-0.264 2.295-0.4 0.526-0.056 1.004-0.219 1.426-0.466l-0.017 0.009c0.229-0.152 0.295-0.299 0.169-0.551-0.105 0.064-0.225 0.121-0.352 0.164l-0.013 0.004c-0.418 0.119-0.959 0.238-1.509 0.327l-0.091 0.012c-1.084 0.139-2.174 0.229-3.262 0.344-0.736 0.076-1.47 0.157-2.21 0.229-0.679 0.065-1.365 0.089-2.039 0.181-0.174 0.029-0.375 0.046-0.579 0.046-0.73 0-1.41-0.214-1.98-0.582l0.014 0.009c-0.247-0.153-0.544-0.311-0.85-0.452l-0.054-0.022c-0.486-0.235-0.981-0.457-1.468-0.69-0.361-0.171-0.706-0.37-1.075-0.525s-0.768-0.232-0.953-0.603zM120.104 20.201c-0.457 0-0.92 0.013-1.38 0-0.933-0.032-1.619-0.36-1.653-1.281-0.041-1.077-0.12-2.152-0.171-3.228-0.033-0.686-0.046-1.378-0.076-2.068 0-0.001 0-0.001 0-0.002 0-0.271-0.024-0.537-0.069-0.796l0.004 0.027c-0.019-0.048-0.031-0.103-0.031-0.162 0-0.194 0.125-0.358 0.298-0.417l0.003-0.001c0.171-0.081 0.369-0.135 0.578-0.152l0.006-0c0.789-0.034 1.58-0.072 2.369-0.058 1.441 0.025 2.881 0.088 4.322 0.13 0.709 0.021 1.417 0.043 2.126 0.037 0.99-0.008 1.976-0.041 2.965-0.065 0.076-0.009 0.142-0.020 0.206-0.034l-0.013 0.002c-0.031-0.018-0.069-0.036-0.108-0.051l-0.006-0.002c-0.062-0.018-0.125-0.035-0.189-0.050-0.797-0.184-1.738-0.32-2.7-0.379l-0.049-0.002c-0.667-0.037-1.331-0.091-1.998-0.101-0.773-0.010-1.548 0.016-2.322 0.037-1.371 0.036-2.75 0.061-4.123 0.129-0.581 0.058-1.1 0.144-1.608 0.262l0.084-0.016c-0.092 0.020-0.174 0.056-0.246 0.104l0.002-0.002c-0.098 0.055-0.163 0.159-0.163 0.277 0 0.067 0.021 0.13 0.057 0.181l-0.001-0.001c0.051 0.081 0.085 0.179 0.093 0.284l0 0.002c0.026 0.645 0.035 1.29 0.060 1.934 0.029 0.762 0.034 1.524 0.113 2.277 0.087 0.905 0.223 1.718 0.41 2.511l-0.025-0.125c0.181 0.746 0.415 1.025 1.257 0.962 0.007-0.001 0.016-0.001 0.025-0.001s0.017 0 0.026 0.001l-0.001-0c0.133 0.010 0.289 0.016 0.446 0.016 0.527 0 1.038-0.066 1.526-0.19l-0.043 0.009zM121.286 20.369c-0.069 0.202-0.037 0.275 0.216 0.273 1.059-0.008 2.12 0.008 3.179 0.015 0.222 0 0.446 0.011 0.667 0 0.063 0 0.122-0.067 0.183-0.103-0.061-0.043-0.12-0.088-0.184-0.128-0.017-0.010-0.048 0-0.076 0-0.814-0.018-1.627-0.040-2.438-0.053-0.515-0.010-1.032-0.003-1.545-0.003zM122.681 20.201c0.049 0 0.096 0 0.143 0 0.946 0.021 1.893 0.061 2.84 0.058 0.887 0 1.774-0.037 2.661-0.088 0.261-0.047 0.494-0.119 0.712-0.217l-0.019 0.008c-0.009-0.034-0.018-0.070-0.026-0.105-2.085 0.494-4.211 0.206-6.311 0.346zM127.73 20.555c-0.013-0.008-0.034-0.014-0.037-0.023-0.013-0.083-0.084-0.145-0.169-0.145-0.039 0-0.076 0.013-0.104 0.036l0-0c-0.069 0.040-0.085 0.152-0.125 0.229 0.087 0.024 0.191 0.044 0.298 0.057l0.010 0.001c0.008 0 0.018 0.001 0.028 0.001 0.080 0 0.157-0.014 0.227-0.040l-0.005 0.001c0.104-0.038 0.194-0.083 0.278-0.138l-0.005 0.003c-0.008-0.054-0.036-0.1-0.076-0.131l-0-0c-0.026-0.012-0.056-0.020-0.087-0.020-0.092 0-0.17 0.061-0.195 0.145l-0 0.001c-0.005 0.010-0.024 0.015-0.038 0.027zM120.838 20.302c-0.092 0.078-0.173 0.165-0.243 0.259l-0.003 0.004c-0.014 0.024 0.089 0.142 0.134 0.141 0.139-0.007 0.318-0.015 0.315-0.191-0.002-0.056-0.098-0.11-0.203-0.213zM120.098 20.482c-0.35-0.060-0.443 0.014-0.375 0.299 0.020 0.004 0.042 0.007 0.066 0.007 0.169 0 0.307-0.136 0.31-0.305v-0zM126.686 20.675c0.193 0.009 0.381 0.044 0.513-0.131-0.218-0.158-0.451-0.101-0.513 0.132zM126.568 20.491c-0.325-0.068-0.381-0.039-0.426 0.211 0.034 0.013 0.073 0.020 0.113 0.020 0.146 0 0.27-0.096 0.313-0.228l0.001-0.002zM119.374 20.881c0.086-0.103 0.152-0.152 0.169-0.218 0.006-0.024-0.107-0.102-0.16-0.099-0.069 0.012-0.125 0.058-0.152 0.12l-0.001 0.001c-0.005 0.042 0.071 0.102 0.144 0.197zM126.020 20.551c-0.014-0.032-0.027-0.065-0.043-0.097l-0.288 0.047 0.085 0.174zM120.431 20.437l-0.132-0.027c-0.029 0.093-0.058 0.185-0.088 0.278l0.152 0.027c0.025-0.091 0.046-0.184 0.069-0.278z"></path>
<path fill="#fff" d="M127.625 19.24c-0.099-0.001-0.215-0.002-0.332-0.002-1.194 0-2.371 0.074-3.526 0.217l0.138-0.014c-0.725 0.085-1.462 0.098-2.194 0.136q-0.986 0.053-1.973 0.090c-0.361 0.014-0.724 0.021-1.085 0.011-0.003 0-0.007 0-0.010 0-0.255 0-0.464-0.198-0.482-0.448l-0-0.002c-0.021-0.22-0.083-0.437-0.107-0.658-0.106-0.983-0.245-1.965-0.294-2.951-0.042-0.838 0.024-1.676 0.037-2.518 0-0.223 0.158-0.305 0.381-0.312 0.823-0.036 1.646-0.088 2.47-0.097 1.458-0.014 2.917 0 4.377 0 1.012 0 2.024-0.020 3.036-0.005 0.412 0.009 0.808 0.055 1.192 0.134l-0.043-0.007c0.405 0.076 0.571 0.267 0.583 0.629 0.020 0.645 0.013 1.295 0.022 1.938 0.007 0.466 0.034 0.932 0.030 1.398-0.005 0.445-0.038 0.889-0.055 1.334-0 0.016-0 0.034-0 0.052 0 0.124 0.006 0.248 0.017 0.369l-0.001-0.016c0.017 0.219-0.109 0.35-0.311 0.472-0.412 0.177-0.892 0.28-1.396 0.28-0.167 0-0.332-0.011-0.493-0.033l0.019 0.002zM122.327 12.81v-0.042c-0.838 0.023-1.676 0.044-2.521 0.069-0.436 0.013-0.873 0.016-1.307 0.056-0.51 0.046-0.578 0.113-0.579 0.55 0 0.762-0.005 1.524 0.031 2.286 0.034 0.723 0.107 1.448 0.181 2.166 0.040 0.393 0.111 0.785 0.178 1.176 0.025 0.152 0.053 0.312 0.262 0.357 0.184 0.055 0.396 0.092 0.616 0.103l0.006 0c0.855-0.021 1.711-0.052 2.564-0.106 1.050-0.067 2.098-0.181 3.148-0.24 0.99-0.056 1.99-0.071 2.986-0.098 0.098 0.012 0.212 0.019 0.327 0.019 0.417 0 0.814-0.091 1.17-0.255l-0.017 0.007c0.163-0.077 0.275-0.236 0.283-0.423l0-0.001c0-0.373 0-0.745 0-1.118-0.005-1.264-0.005-2.528-0.020-3.792-0.004-0.414-0.136-0.584-0.61-0.624-0.77-0.066-1.545-0.083-2.318-0.089-1.462-0.013-2.92-0.004-4.38-0.004z"></path>
<path fill="#fff" d="M123.426 21.397c1.040-0.082 2.079-0.176 3.124-0.242 0.686-0.043 1.381-0.046 2.072-0.070q0.616-0.023 1.232-0.053c0.024-0.001 0.053-0.002 0.082-0.002 0.486 0 0.926 0.199 1.242 0.519l0 0c0.057 0.061 0.123 0.111 0.196 0.15l0.004 0.002c0.311 0.141 0.375 0.485 0.076 0.635-0.3 0.151-0.649 0.277-1.013 0.361l-0.032 0.006c-0.853 0.194-1.713 0.366-2.575 0.522-0.539 0.098-1.091 0.152-1.637 0.221-0.821 0.109-1.642 0.229-2.465 0.322-0.391 0.058-0.843 0.091-1.302 0.091-0.010 0-0.020 0-0.030-0h0.002c-0.332-0.028-0.638-0.098-0.927-0.204l0.024 0.008c-0.133-0.041-0.223-0.179-0.353-0.237-0.686-0.305-1.371-0.602-2.057-0.903-0.19-0.079-0.346-0.155-0.497-0.24l0.023 0.012c-0.213-0.124-0.22-0.283 0.009-0.381 0.222-0.102 0.479-0.176 0.749-0.209l0.013-0.001c1.343-0.131 2.69-0.24 4.038-0.356-0.004 0.016-0.002 0.034 0 0.048zM120.455 22.51l0.085-0.076c0.414 0.515 0.965 0.291 1.557 0.279l-0.397-0.326 0.049-0.040c0.23 0.121 0.498 0.222 0.779 0.291l0.024 0.005c0.033 0.001 0.071 0.001 0.11 0.001 0.284 0 0.562-0.028 0.831-0.082l-0.027 0.005c-0.072-0.138-0.13-0.252-0.188-0.367 0.024-0.012 0.046-0.026 0.069-0.040 0.106 0.101 0.206 0.206 0.322 0.299 0.058 0.053 0.134 0.088 0.217 0.097l0.002 0c0.32-0.011 0.64-0.040 0.96-0.065 0.255-0.018 0.511-0.041 0.808-0.066l-0.457-0.328 0.059-0.065c0.191 0.085 0.348 0.167 0.499 0.258l-0.021-0.011c0.11 0.065 0.242 0.103 0.383 0.103 0.071 0 0.14-0.010 0.206-0.028l-0.005 0.001c0.272-0.043 0.549-0.055 0.824-0.088s0.57-0.076 0.87-0.114c-0.064-0.234-0.27-0.405-0.517-0.418l-0.001-0c-0.476 0-0.953 0.053-1.427 0.101-0.678 0.068-1.352 0.164-2.030 0.225-1.161 0.108-2.325 0.19-3.486 0.296-0.338 0.030-0.67 0.101-1.005 0.152 0 0.021 0 0.042 0 0.062 0.392 0.133 0.729 0.469 1.219 0.229-0.101-0.096-0.206-0.191-0.306-0.285zM122.365 21.663c0.321 0.188 0.707 0.299 1.118 0.299 0.092 0 0.182-0.006 0.271-0.016l-0.011 0.001c0.017 0 0.034 0 0.050 0 0.248-0.027 0.497-0.055 0.746-0.085 0-0.022 0.005-0.044 0.007-0.068-0.024-0.009-0.044-0.020-0.062-0.034l0.001 0c-0.059-0.062-0.114-0.126-0.17-0.189 0.095 0.009 0.182 0.031 0.263 0.065l-0.006-0.002c0.152 0.103 0.34 0.164 0.542 0.164 0.053 0 0.106-0.004 0.156-0.012l-0.006 0.001c0.324-0.048 0.653-0.067 0.981-0.098 0.232-0.021 0.467-0.040 0.734-0.062-0.080-0.19-0.265-0.321-0.481-0.321-0.019 0-0.037 0.001-0.055 0.003l0.002-0c-1.237 0.076-2.474 0.134-3.71 0.222q-1.619 0.114-3.233 0.292c-0.008-0-0.016-0-0.025-0-0.336 0-0.646 0.115-0.892 0.307l0.003-0.002c0.251 0.121 0.445 0.298 0.757 0.252 0.152-0.024 0.31-0.040 0.464-0.062 0.31-0.043 0.621-0.088 0.978-0.141l-0.419-0.286 0.053-0.066c0.062 0.026 0.12 0.054 0.181 0.076 0.18 0.105 0.389 0.185 0.611 0.227l0.012 0.002c0.464 0 0.927-0.076 1.438-0.123zM129.323 22.626c-0.082-0.114-0.142-0.199-0.203-0.283-0.073-0.119-0.202-0.197-0.35-0.197-0.042 0-0.083 0.006-0.122 0.018l0.003-0.001c-0.21 0.039-0.468 0.071-0.731 0.089l-0.022 0.001q-1.448 0.152-2.889 0.305c-0.208 0.022-0.418 0.037-0.695 0.061 0.197 0.196 0.346 0.354 0.512 0.498 0.044 0.024 0.097 0.038 0.153 0.038 0.019 0 0.038-0.002 0.056-0.005l-0.002 0q0.859-0.083 1.717-0.178c0.135-0.024 0.248-0.050 0.359-0.082l-0.024 0.006c-0.063-0.145-0.116-0.264-0.168-0.385l0.076-0.034c0.049 0.051 0.093 0.108 0.129 0.17l0.002 0.004c0.048 0.137 0.177 0.234 0.328 0.234 0.031 0 0.061-0.004 0.090-0.012l-0.002 0.001c0.178-0.027 0.357-0.043 0.533-0.068 0.408-0.055 0.81-0.116 1.253-0.179zM124.648 23.173c-0.533-0.552-0.588-0.572-1.227-0.49-0.323 0.075-0.697 0.121-1.079 0.128l-0.005 0c-0.575-0.043-1.097 0.268-1.671 0.141-0.018-0.004-0.043 0.017-0.069 0.029 0.037 0.043 0.053 0.076 0.076 0.085 0.314 0.141 0.622 0.299 0.949 0.41 0.066 0.011 0.143 0.017 0.221 0.017 0.089 0 0.177-0.008 0.262-0.024l-0.009 0.001c0-0.026 0.007-0.053 0.011-0.076l-0.627-0.376 0.076-0.085c0.182 0.112 0.357 0.235 0.549 0.331 0.133 0.077 0.289 0.131 0.456 0.152l0.006 0.001c0.237-0.007 0.464-0.032 0.685-0.074l-0.027 0.004zM129.144 22.086c-0.009 0.027-0.018 0.055-0.027 0.082 0.094 0.098 0.183 0.2 0.284 0.291 0.058 0.064 0.134 0.11 0.22 0.132l0.003 0.001c0.004 0 0.008 0 0.013 0 0.168 0 0.331-0.020 0.487-0.058l-0.014 0.003c0.404-0.088 0.807-0.181 1.202-0.289 0.076-0.034 0.13-0.106 0.138-0.191l0-0.001c-0.039-0.075-0.112-0.127-0.199-0.136l-0.001-0c-0.391 0.022-0.782 0.065-1.171 0.109-0.076 0.008-0.152 0.082-0.229 0.082-0.235 0.005-0.472-0.011-0.709-0.021zM126.995 21.272l-0.047 0.090c0.139 0.082 0.274 0.221 0.419 0.229 0.036 0.001 0.079 0.001 0.123 0.001 0.276 0 0.548-0.020 0.814-0.059l-0.030 0.004c0.514-0.048 1.028-0.105 1.542-0.163 0.164-0.018 0.326-0.053 0.489-0.076 0-0.028-0.006-0.056-0.009-0.085-1.102-0.111-2.2 0.068-3.3 0.062zM129.636 21.948c0.008-0.017 0.015-0.034 0.023-0.051-0.229-0.138-0.36-0.417-0.748-0.33-0.277 0.061-0.568 0.076-0.85 0.116-0.053 0.007-0.105 0.015-0.187 0.027 0.053 0.095 0.115 0.177 0.187 0.25l-0-0c0.078 0.074 0.179 0.123 0.292 0.135l0.002 0c0.43-0.032 0.854-0.090 1.282-0.145zM125.75 23.306l-0.042-0.105c-1.024 0.146-2.068 0.157-3.086 0.395 0.111 0.039 0.24 0.061 0.373 0.061 0.031 0 0.062-0.001 0.092-0.004l-0.004 0c0.432-0.035 0.862-0.085 1.295-0.127 0.358-0.037 0.718-0.066 1.074-0.112 0.114-0.025 0.213-0.062 0.307-0.109l-0.008 0.003zM129.531 21.505c-0.013 0.036-0.025 0.069-0.038 0.104 0.145 0.094 0.286 0.267 0.431 0.269 0.429-0.011 0.839-0.045 1.241-0.102l-0.057 0.007c0.010-0.022 0.021-0.046 0.030-0.067-0.146-0.090-0.286-0.251-0.438-0.259-0.027-0-0.059-0-0.090-0-0.38 0-0.756 0.019-1.126 0.056l0.047-0.004zM125.797 23.181c0.208 0.023 0.449 0.036 0.693 0.036 0.783 0 1.535-0.134 2.234-0.38l-0.047 0.014z"></path>
<path fill="#fff" d="M119.045 23.697c-0.111-0.031-0.218-0.054-0.318-0.092-0.406-0.152-0.808-0.315-1.219-0.466-0.131-0.046-0.171-0.097-0.133-0.229 0.002-0.025 0.003-0.054 0.003-0.083 0-0.087-0.011-0.172-0.031-0.253l0.001 0.007c-0.002-0.011-0.002-0.023-0.002-0.035 0-0.043 0.011-0.083 0.030-0.119l-0.001 0.001c0.011-0.017 0.107-0.008 0.152 0.012 0.363 0.181 0.718 0.371 1.085 0.546 0.302 0.149 0.524 0.325 0.432 0.709zM117.89 22.997l-0.232-0.284c-0.058 0.306-0.056 0.309 0.232 0.284z"></path>
<path fill="#fff" d="M120 23.726l0.241 0.236c-0.062 0.059-0.133 0.109-0.212 0.146l-0.005 0.002c-0.158 0.047-0.208-0.070-0.205-0.167 0.002-0.059 0.091-0.115 0.181-0.217z"></path>
<path fill="#fff" d="M127.181 17.334l-0.296-0.175c0.011-0.019 0.024-0.038 0.034-0.058 0.328 0.005 0.533 0.263 0.838 0.331-0.171 0.187-0.417 0.304-0.69 0.304-0.069 0-0.137-0.008-0.202-0.022l0.006 0.001 0.398-0.142c0-0.024 0-0.049 0-0.076-0.236 0-0.472 0-0.709 0-0.593 0-1.186 0-1.778 0.014-0.686 0.016-1.366 0.037-2.047 0.076-0.789 0.045-1.576 0.107-2.362 0.171-0.176 0.020-0.336 0.060-0.487 0.118l0.014-0.005c-0.248 0.083-0.309 0.051-0.316-0.177-0.019-0.567-0.031-1.133-0.067-1.699-0.034-0.538-0.093-1.074-0.143-1.611-0.014-0.073-0.030-0.135-0.051-0.196l0.003 0.010c-0.037 0.038-0.078 0.071-0.123 0.098l-0.003 0.002c-0.048 0.014-0.104 0.024-0.162 0.029l-0.003 0c-0.004-0.020-0.006-0.043-0.006-0.066s0.002-0.046 0.006-0.068l-0 0.002c0.063-0.147 0.146-0.29 0.202-0.438s0.152-0.198 0.309-0.098c0.185 0.12 0.375 0.235 0.552 0.364 0.046 0.034 0.048 0.114 0.070 0.172l-0.066 0.030-0.568-0.293c-0.027 1.226 0.18 2.389 0.221 3.56l0.092 0.024c0.087-0.076 0.168-0.163 0.262-0.235 0.054-0.035 0.117-0.066 0.183-0.091l0.007-0.002c-0.018 0.065-0.042 0.122-0.071 0.176l0.002-0.004c-0.056 0.082-0.127 0.158-0.238 0.292 1.695-0.176 3.661-0.276 5.652-0.276 0.533 0 1.065 0.007 1.594 0.021l-0.078-0.002c0.005-0.019 0.013-0.040 0.021-0.064z"></path>
<path fill="#fff" d="M122.569 13.33l3.146-0.105 0.028 0.055c-0.056 0.038-0.12 0.068-0.19 0.085l-0.004 0.001q-1.321 0.053-2.641 0.091c-0.126-0.004-0.247-0.015-0.365-0.033l0.016 0.002c0.003-0.030 0.005-0.065 0.009-0.096z"></path>
<path fill="#fff" d="M127.627 18.44c0.206-0.050 0.443-0.079 0.687-0.079 0.266 0 0.524 0.034 0.77 0.099l-0.021-0.005c-0.207 0.056-0.445 0.088-0.69 0.088-0.266 0-0.523-0.038-0.766-0.108l0.019 0.005z"></path>
<path fill="#fff" d="M119.594 18.91l1.384-0.169c-0.254 0.151-0.56 0.241-0.887 0.241-0.177 0-0.348-0.026-0.509-0.075l0.012 0.003z"></path>
<path fill="#fff" d="M119.503 18.604l1.249-0.089c-0.243 0.125-0.53 0.198-0.834 0.198-0.145 0-0.285-0.017-0.421-0.048l0.013 0.002c-0.002-0.022-0.005-0.043-0.007-0.063z"></path>
<path fill="#fff" d="M123.749 15.4c0.086-0.133 0.168-0.267 0.264-0.394 0.021-0.028 0.094-0.027 0.142-0.039 0 0.043 0.014 0.093-0.008 0.125-0.077 0.11-0.156 0.207-0.241 0.297l0.001-0.001c-0.026 0.028-0.083 0.034-0.126 0.049z"></path>
<path fill="#fff" d="M120.937 16.384c0.098 0.219-0.030 0.433-0.329 0.555z"></path>
<path fill="#fff" d="M123.050 16.063l0.405-0.381c0.058 0.182-0.115 0.357-0.405 0.381z"></path>
<path fill="#fff" d="M124.35 14.66c0-0.174 0.126-0.277 0.286-0.359l0.076 0.046-0.291 0.357z"></path>
<path fill="#fff" d="M125.182 14.146c0.060-0.029 0.131-0.047 0.207-0.047 0.124 0 0.236 0.047 0.321 0.123l-0-0h-0.52c-0.002-0.024-0.005-0.050-0.007-0.076z"></path>
<path fill="#fff" d="M122.726 16.292l-0.496-0.053c0.005-0.037 0.009-0.072 0.014-0.108l0.494 0.030c-0.003 0.043-0.007 0.088-0.011 0.131z"></path>
<path fill="#fff" d="M127.002 14.227l-0.571 0.027c0-0.029 0-0.059 0-0.088h0.575c-0.004 0.021-0.004 0.041-0.004 0.062z"></path>
<path fill="#fff" d="M121.405 16.139l0.427-0.026c0 0.037 0.007 0.072 0.010 0.108l-0.428 0.035c-0.002-0.041-0.005-0.080-0.008-0.117z"></path>
<path fill="#fff" d="M15.056 11.328c0.106 0.103 0.171 0.247 0.171 0.406 0 0.273-0.193 0.501-0.45 0.555l-0.004 0.001c-0.152 0.050-0.239 0.1-0.209 0.288 0.050 0.299-0.169 0.445-0.386 0.594-0.184 0.129-0.413 0.206-0.66 0.206-0.291 0-0.556-0.107-0.76-0.284l0.001 0.001c-0.121-0.151-0.228-0.322-0.314-0.505l-0.007-0.016c-0.471 0.088-0.69-0.274-0.847-0.699-0.018-0.046 0.050-0.123 0.086-0.202-0.144-0.142-0.093-0.374-0.165-0.54-0.057-0.125-0.090-0.271-0.090-0.425 0-0.072 0.007-0.142 0.021-0.21l-0.001 0.007c0.024-0.098 0.056-0.183 0.096-0.263l-0.003 0.007c0.038-0.117 0.059-0.252 0.059-0.391 0-0.35-0.137-0.668-0.36-0.904l0.001 0.001c-0.445-0.531-0.795-1.159-1.013-1.846l-0.011-0.039c-0.048-0.22-0.117-0.436-0.169-0.656-0.029-0.139-0.045-0.299-0.045-0.462 0-0.899 0.495-1.682 1.227-2.093l0.012-0.006c0.593-0.34 1.295-0.558 2.044-0.604l0.013-0.001c0.077-0.009 0.167-0.014 0.258-0.014 0.705 0 1.339 0.3 1.783 0.78l0.001 0.002c0.34 0.303 0.557 0.736 0.573 1.221l0 0.003c0.002 0.055 0.004 0.12 0.004 0.184 0 0.771-0.187 1.499-0.518 2.14l0.012-0.026c-0.137 0.239-0.275 0.524-0.395 0.819l-0.017 0.049c-0.085 0.191-0.135 0.414-0.135 0.648 0 0.154 0.021 0.303 0.062 0.444l-0.003-0.011c0.067 0.157 0.132 0.349 0.182 0.546l0.006 0.029c0.014 0.125 0.021 0.27 0.021 0.417 0 0.079-0.002 0.157-0.007 0.234l0.001-0.011c0 0.064-0.033 0.142-0.005 0.188 0.035 0.052 0.057 0.116 0.057 0.185 0 0.102-0.046 0.194-0.119 0.254l-0.001 0zM14.738 6.36c-0.064-0.006-0.124-0.018-0.18-0.037l0.005 0.002c-0.049-0.031-0.108-0.050-0.172-0.050-0.14 0-0.259 0.089-0.303 0.214l-0.001 0.002c-0.119 0.395-0.216 0.798-0.305 1.2-0.030 0.133 0 0.28-0.027 0.414-0.029 0.166-0.046 0.358-0.046 0.553 0 0.361 0.057 0.709 0.163 1.034l-0.007-0.024c0.015 0.039 0.046 0.070 0.084 0.084l0.001 0c0.229 0.066 0.462 0.125 0.701 0.188-0.055-0.231-0.105-0.523-0.14-0.819l-0.004-0.037c0.020-0.452 0.151-0.87 0.366-1.231l-0.007 0.012c0.14-0.26 0.291-0.586 0.424-0.921l0.024-0.069c0.088-0.303 0.173-0.689 0.236-1.083l0.008-0.060c0.014-0.085 0.021-0.184 0.021-0.284 0-0.952-0.698-1.741-1.611-1.882l-0.011-0.001c-0.165-0.033-0.354-0.052-0.548-0.052-0.185 0-0.366 0.017-0.541 0.050l0.018-0.003c-0.66 0.078-1.25 0.328-1.739 0.703l0.008-0.006c-0.514 0.367-0.845 0.961-0.845 1.633 0 0.024 0 0.047 0.001 0.070l-0-0.003c0.084 1.093 0.508 2.073 1.164 2.85l-0.006-0.007c0.138 0.192 0.259 0.411 0.352 0.645l0.007 0.021c0.060 0.166 0.117 0.37 0.159 0.58l0.005 0.030c0.142-0.027 0.285-0.047 0.423-0.088 0.039-0.028 0.064-0.073 0.064-0.124 0-0.003-0-0.005-0-0.008v0c-0.085-0.359-0.182-0.715-0.272-1.074-0.076-0.31-0.13-0.629-0.233-0.931-0.118-0.292-0.236-0.534-0.368-0.767l0.016 0.031c-0.013-0.017-0.033-0.027-0.055-0.028h-0c-0.259 0.005-0.28-0.187-0.296-0.366-0.001-0.019-0.001-0.042-0.001-0.065 0-0.108 0.008-0.214 0.024-0.317l-0.001 0.012c0.018-0.204 0.076-0.238 0.268-0.177 0.305 0.098 0.305 0.098 0.381-0.206 0-0.012 0.017-0.023 0.058-0.076l0.457 0.312c0.033-0.114 0.056-0.213 0.092-0.305 0.024-0.062 0.080-0.168 0.101-0.163 0.092 0.024 0.172 0.065 0.241 0.119l-0.001-0.001c0.039 0.030 0.051 0.094 0.094 0.182l0.293-0.418c0.357-0.034 0.185 0.3 0.338 0.457 0.082-0.093 0.163-0.18 0.24-0.27 0.118-0.137 0.224-0.123 0.293 0.042 0.018 0.043 0.030 0.088 0.056 0.164 0.090-0.083 0.152-0.152 0.229-0.207 0.043-0.033 0.119-0.076 0.152-0.061 0.052 0.035 0.088 0.089 0.1 0.151l0 0.002c0.023 0.139 0.029 0.287 0.046 0.469zM12.122 6.306c-0.055 0.169 0.008 0.44-0.343 0.395 0.057 0.142 0.118 0.263 0.189 0.377l-0.006-0.010c0.213 0.284 0.357 0.632 0.4 1.011l0.001 0.010c0.034 0.189 0.077 0.352 0.131 0.51l-0.007-0.024c0.12 0.427 0.241 0.855 0.368 1.307l0.674-0.11c-0.077-0.376-0.122-0.809-0.122-1.251 0-0.819 0.152-1.603 0.428-2.325l-0.015 0.044c-0.277 0.091-0.423 0.012-0.496-0.242-0.075 0.143-0.163 0.265-0.267 0.374l0.001-0.001c-0.2 0.156-0.2-0.174-0.312-0.174-0.094 0.135-0.176 0.251-0.258 0.366zM11.953 11.91c-0.001 0.010-0.001 0.021-0.001 0.032 0 0.204 0.165 0.37 0.37 0.37 0.015 0 0.029-0.001 0.043-0.003l-0.002 0c0.168-0.025 0.37-0.044 0.575-0.051l0.010-0c0.005 0 0.011 0 0.018 0 0.601 0 1.184-0.082 1.736-0.236l-0.046 0.011c0.167-0.053 0.286-0.207 0.286-0.388 0-0.027-0.003-0.054-0.008-0.080l0 0.003c-0.046-0.214-0.229-0.094-0.348-0.124-0.039-0.011-0.091 0.034-0.139 0.047-0.264 0.097-0.593 0.191-0.93 0.265l-0.053 0.010c-0.498 0.077-1.006 0.1-1.511 0.146zM11.742 10.718c-0.027 0.224 0.159 0.385 0.424 0.359 0.584-0.058 1.169-0.109 1.752-0.196 0.333-0.069 0.62-0.155 0.897-0.262l-0.039 0.013c0.043-0.014 0.076-0.072 0.109-0.11l-0.030-0.051c-0.669 0.187-1.437 0.294-2.23 0.294-0.311 0-0.618-0.017-0.921-0.049l0.038 0.003zM11.944 10.337c0.061 0.041 0.131 0.076 0.205 0.102l0.006 0.002c0.17 0.012 0.368 0.019 0.568 0.019 0.603 0 1.192-0.062 1.76-0.181l-0.056 0.010c0.070-0.022 0.129-0.048 0.186-0.079l-0.005 0.003c-0.070-0.040-0.157-0.082-0.246-0.119l-0.017-0.006c-0.186-0.055-0.401-0.087-0.622-0.087-0.198 0-0.39 0.025-0.573 0.073l0.016-0.003c-0.379 0.072-0.757 0.164-1.223 0.267zM11.816 11.284c0.105 0.305 0.175 0.341 0.438 0.326 0.313-0.019 0.628-0.010 0.942-0.026 0.128-0.011 0.247-0.038 0.359-0.079l-0.010 0.003c0.186-0.059 0.366-0.136 0.553-0.193s0.398-0.098 0.595-0.158c0.114-0.036 0.249-0.082 0.184-0.2-0.522 0.098-1.014 0.203-1.511 0.283-0.269 0.059-0.579 0.093-0.896 0.093-0.231 0-0.458-0.018-0.679-0.052l0.025 0.003zM12.859 12.559c0 0.352 0.287 0.565 0.708 0.549 0 0 0.001 0 0.001 0 0.362 0 0.656-0.294 0.656-0.656 0-0.006-0-0.012-0-0.018l0 0.001z"></path>
<path fill="#fff" d="M17.401 0.056c-0.21 0.381-0.411 0.766-0.635 1.137-0.132 0.2-0.268 0.374-0.417 0.536l0.003-0.003c-0.267 0.316-0.543 0.627-0.815 0.939-0.038 0.054-0.085 0.1-0.138 0.136l-0.002 0.001c-0.057 0.028-0.174 0.050-0.189 0.026-0.027-0.040-0.042-0.090-0.042-0.143 0-0.024 0.003-0.047 0.009-0.070l-0 0.002c0.047-0.086 0.106-0.159 0.175-0.219l0.001-0.001c0.344-0.363 0.704-0.712 1.030-1.091 0.229-0.263 0.402-0.568 0.61-0.849 0.116-0.157 0.248-0.305 0.37-0.457 0.014 0.019 0.028 0.038 0.042 0.056z"></path>
<path fill="#fff" d="M19.112 6.844c-0.092 0.006-0.2 0.009-0.309 0.009s-0.217-0.003-0.324-0.010l0.015 0.001c-0.51-0.062-1.015-0.152-1.524-0.21-0.082-0.010-0.172 0.069-0.261 0.104-0.039 0.022-0.085 0.035-0.135 0.036h-0c-0.021 0-0.040-0.070-0.046-0.11-0.002-0.012-0.003-0.025-0.003-0.039 0-0.165 0.134-0.299 0.299-0.299 0.012 0 0.024 0.001 0.036 0.002l-0.001-0c0.322 0.033 0.641 0.076 0.959 0.128 0.341 0.052 0.681 0.108 1.019 0.174 0.117 0.033 0.219 0.072 0.315 0.12l-0.010-0.005c-0.013 0.030-0.022 0.065-0.031 0.1z"></path>
<path fill="#fff" d="M18.929 3.855c-0.241 0.182-0.522 0.326-0.827 0.415l-0.018 0.005c-0.425 0.152-0.838 0.331-1.262 0.491-0.025 0.011-0.054 0.017-0.084 0.017-0.038 0-0.074-0.010-0.105-0.027l0.001 0.001c-0.020-0.030-0.033-0.067-0.033-0.107 0-0.029 0.006-0.056 0.018-0.081l-0 0.001c0.065-0.085 0.151-0.151 0.25-0.192l0.004-0.001c0.61-0.198 1.229-0.381 1.845-0.571 0.041-0.007 0.088-0.012 0.136-0.012 0.022 0 0.044 0.001 0.065 0.003l-0.003-0c0.003 0.019 0.010 0.039 0.014 0.058z"></path>
<path fill="#fff" d="M9.176 9.111c-0.060 0.059-0.109 0.152-0.179 0.173-0.557 0.163-1.116 0.318-1.676 0.457-0.014 0.002-0.030 0.004-0.047 0.004-0.081 0-0.155-0.033-0.208-0.087l-0-0c-0.069-0.104 0.036-0.152 0.131-0.196 0.564-0.233 1.216-0.386 1.9-0.426l0.016-0.001c0.018 0.026 0.040 0.050 0.062 0.075z"></path>
<path fill="#fff" d="M8.928 6.894c-0.090 0.045-0.195 0.074-0.306 0.083l-0.003 0c-0.403-0.056-0.804-0.139-1.206-0.21-0.144-0.025-0.29-0.043-0.433-0.067-0.085-0.005-0.165-0.023-0.239-0.051l0.005 0.002c-0.046-0.025-0.067-0.1-0.099-0.152 0.052-0.027 0.105-0.081 0.152-0.076 0.335 0.043 0.669 0.092 1.002 0.152 0.345 0.062 0.686 0.138 1.032 0.21 0.029 0.010 0.054 0.021 0.078 0.035l-0.002-0.001z"></path>
<path fill="#fff" d="M9.405 4.188c-0.112-0.006-0.216-0.034-0.31-0.078l0.005 0.002c-0.299-0.219-0.58-0.457-0.87-0.69-0.109-0.086-0.235-0.152-0.333-0.248-0.046-0.043-0.046-0.135-0.067-0.204 0.066-0.012 0.148-0.055 0.194-0.030 0.161 0.078 0.299 0.169 0.424 0.274l-0.003-0.002c0.332 0.294 0.651 0.603 0.976 0.905-0.004 0.025-0.011 0.049-0.017 0.072z"></path>
<path fill="#fff" d="M16.2 8.52c0.364 0.088 0.663 0.18 0.954 0.288l-0.059-0.019c0.335 0.157 0.61 0.307 0.875 0.471l-0.037-0.021c0.049 0.021 0.091 0.050 0.127 0.085l-0-0c0.011 0.021 0.017 0.045 0.017 0.071 0 0.015-0.002 0.030-0.006 0.044l0-0.001c0 0.011-0.065 0.019-0.094 0.011-0.070-0.023-0.13-0.049-0.187-0.079l0.006 0.003c-0.305-0.142-0.61-0.296-0.92-0.426-0.139-0.049-0.308-0.093-0.482-0.125l-0.022-0.003c-0.087-0.017-0.163-0.041-0.236-0.071l0.008 0.003c-0.039-0.026-0.066-0.068-0.069-0.117l-0-0.001c0.001-0.028 0.060-0.057 0.125-0.112z"></path>
<path fill="#fff" d="M11.981 1.915c-0.047-0.048-0.087-0.102-0.119-0.162l-0.002-0.004c-0.143-0.418-0.286-0.838-0.413-1.262-0.022-0.071 0.029-0.163 0.046-0.245 0.076 0.052 0.182 0.088 0.217 0.159 0.18 0.409 0.297 0.883 0.326 1.381l0.001 0.011c0.002 0.013 0.003 0.027 0.003 0.042s-0.001 0.030-0.003 0.044l0-0.002c-0.005 0.014-0.024 0.014-0.056 0.037z"></path>
<path fill="#fff" d="M16.896 10.61c-0.418-0.164-0.755-0.457-0.971-0.829l-0.005-0.009c0.172-0.039 0.651 0.374 0.976 0.838z"></path>
<path fill="#fff" d="M112.674 32c-0.309 0-0.626-0.013-0.941-0.037l0.052-0.68c0.299 0.022 0.599 0.034 0.891 0.035zM113.616 31.966l-0.051-0.68c0.296-0.022 0.594-0.056 0.884-0.1l0.105 0.673c-0.308 0.051-0.626 0.085-0.938 0.107zM110.797 31.861c-0.305-0.043-0.61-0.098-0.923-0.162l0.14-0.667c0.296 0.061 0.593 0.114 0.881 0.152zM115.481 31.68l-0.16-0.662c0.287-0.068 0.575-0.152 0.855-0.24l0.215 0.647c-0.298 0.098-0.604 0.181-0.91 0.258zM108.963 31.483c-0.296-0.076-0.597-0.168-0.896-0.266l0.215-0.647c0.287 0.094 0.577 0.18 0.861 0.255zM30.283 31.212q-0.25 0-0.501-0.005l0.013-0.681q0.457 0.009 0.905 0l0.011 0.681q-0.212 0.005-0.427 0.005zM31.639 31.177l-0.036-0.68c0.297-0.015 0.601-0.037 0.902-0.062l0.060 0.678c-0.309 0.027-0.619 0.050-0.923 0.066zM28.853 31.177c-0.314-0.017-0.626-0.038-0.926-0.064l0.060-0.679c0.293 0.025 0.597 0.046 0.903 0.062zM117.267 31.115l-0.239-0.638c0.182-0.067 0.474-0.18 0.83-0.337l0.28 0.622c-0.373 0.158-0.679 0.28-0.871 0.35zM33.49 31.019l-0.085-0.676c0.299-0.037 0.6-0.076 0.896-0.126l0.109 0.673c-0.304 0.046-0.613 0.089-0.92 0.127zM27.003 31.019c-0.309-0.038-0.619-0.083-0.921-0.133l0.114-0.672c0.292 0.049 0.592 0.092 0.892 0.13zM107.187 30.913c-0.285-0.108-0.575-0.229-0.863-0.35l0.275-0.624c0.278 0.12 0.559 0.234 0.834 0.339zM35.323 30.731l-0.133-0.668c0.294-0.057 0.591-0.12 0.885-0.188l0.152 0.664c-0.297 0.063-0.603 0.128-0.904 0.187zM25.167 30.712c-0.305-0.064-0.61-0.137-0.907-0.216l0.178-0.658c0.287 0.076 0.581 0.146 0.873 0.208zM118.984 30.36l-0.318-0.604c0.272-0.14 0.533-0.287 0.777-0.437l0.361 0.58c-0.257 0.152-0.533 0.307-0.819 0.455zM37.132 30.311l-0.179-0.658c0.287-0.076 0.58-0.16 0.87-0.248l0.201 0.651c-0.298 0.087-0.598 0.172-0.892 0.254zM23.365 30.231c-0.299-0.097-0.596-0.203-0.881-0.314l0.252-0.634c0.273 0.107 0.556 0.207 0.843 0.3zM105.479 30.174c-0.272-0.131-0.552-0.271-0.83-0.418l0.323-0.601c0.27 0.142 0.542 0.28 0.806 0.406zM38.907 29.773l-0.222-0.645q0.43-0.146 0.853-0.305l0.244 0.637q-0.434 0.16-0.874 0.309zM21.622 29.549c-0.285-0.133-0.566-0.276-0.838-0.426l0.337-0.594c0.256 0.142 0.523 0.278 0.792 0.404zM120.59 29.371l-0.411-0.546c0.25-0.184 0.469-0.367 0.677-0.562l-0.004 0.004 0.474 0.494c-0.222 0.206-0.462 0.405-0.713 0.589l-0.023 0.016zM103.834 29.308q-0.403-0.229-0.798-0.474l0.363-0.578q0.386 0.238 0.779 0.462zM40.643 29.123l-0.264-0.629q0.42-0.172 0.832-0.357l0.283 0.621q-0.421 0.181-0.851 0.362zM19.985 28.635c-0.264-0.173-0.521-0.357-0.762-0.547l0.425-0.533c0.229 0.178 0.472 0.352 0.72 0.515zM42.335 28.366l-0.305-0.61q0.409-0.197 0.81-0.405l0.318 0.603q-0.408 0.209-0.825 0.411zM102.256 28.334q-0.386-0.254-0.762-0.517l0.395-0.558q0.371 0.258 0.75 0.507zM121.978 28.044l-0.549-0.411c0.114-0.146 0.222-0.31 0.317-0.482l0.010-0.019 0.61 0.321c-0.125 0.226-0.254 0.42-0.397 0.602l0.007-0.010zM43.978 27.516l-0.335-0.594q0.398-0.22 0.787-0.449l0.351 0.586q-0.398 0.232-0.805 0.456zM18.502 27.48c-0.229-0.211-0.457-0.436-0.664-0.665l0.509-0.457c0.198 0.216 0.408 0.426 0.623 0.624zM100.741 27.282q-0.373-0.274-0.738-0.555l0.422-0.537q0.358 0.275 0.725 0.545zM45.571 26.58l-0.366-0.577q0.386-0.241 0.762-0.489l0.381 0.568q-0.382 0.252-0.777 0.496zM99.278 26.156q-0.361-0.291-0.712-0.587l0.446-0.519q0.344 0.29 0.7 0.577zM17.233 26.096c-0.19-0.246-0.372-0.504-0.541-0.767l0.581-0.366c0.158 0.247 0.329 0.489 0.507 0.72zM47.114 25.563l-0.395-0.558q0.374-0.259 0.74-0.525l0.407 0.549q-0.376 0.273-0.754 0.536zM97.869 24.966q-0.35-0.305-0.686-0.613l0.466-0.501q0.332 0.305 0.677 0.605zM16.216 24.52c-0.146-0.274-0.282-0.558-0.406-0.843l0.632-0.269c0.117 0.27 0.246 0.538 0.381 0.795zM48.604 24.484l-0.419-0.54q0.363-0.276 0.716-0.557l0.43 0.533q-0.359 0.281-0.728 0.562zM96.505 23.732q-0.341-0.321-0.664-0.637l0.483-0.485q0.319 0.312 0.655 0.629zM50.046 23.338l-0.441-0.522q0.351-0.292 0.693-0.585l0.452 0.514q-0.347 0.296-0.703 0.591zM15.471 22.805c-0.101-0.29-0.193-0.59-0.274-0.893l0.665-0.174c0.076 0.287 0.164 0.572 0.259 0.846zM95.188 22.445q-0.332-0.336-0.642-0.659l0.5-0.469q0.305 0.319 0.634 0.651zM51.441 22.136l-0.462-0.505q0.341-0.305 0.671-0.61l0.47 0.498q-0.333 0.306-0.679 0.616zM93.915 21.117q-0.327-0.353-0.62-0.68l0.514-0.453q0.29 0.322 0.61 0.671zM14.988 21.003c-0.059-0.3-0.11-0.61-0.152-0.919l0.686-0.088c0.039 0.295 0.087 0.59 0.143 0.876zM52.791 20.884l-0.479-0.489q0.331-0.317 0.65-0.634l0.487 0.482q-0.321 0.32-0.658 0.642zM92.688 19.746c-0.221-0.254-0.421-0.488-0.598-0.701l0.53-0.435c0.175 0.21 0.373 0.441 0.59 0.691zM54.096 19.593l-0.494-0.473q0.321-0.328 0.629-0.654l0.501 0.466q-0.309 0.326-0.637 0.659zM14.747 19.162c-0.021-0.309-0.033-0.622-0.036-0.93l0.686-0.005c0 0.294 0.014 0.593 0.034 0.888zM91.506 18.335c-0.273-0.34-0.418-0.533-0.418-0.533l-0.152-0.217 0.565-0.387 0.146 0.209s0.139 0.184 0.396 0.504zM55.36 18.259l-0.508-0.457q0.312-0.339 0.61-0.673l0.514 0.452q-0.302 0.333-0.617 0.676zM15.419 17.338l-0.686-0.038c0.033-0.58 0.089-0.926 0.091-0.94l0.679 0.11s-0.054 0.328-0.085 0.868zM56.584 16.891l-0.52-0.446q0.305-0.35 0.594-0.686l0.526 0.44q-0.292 0.338-0.6 0.691zM90.412 16.846q-0.269-0.372-0.537-0.728l0.552-0.406q0.272 0.362 0.545 0.738zM57.775 15.496l-0.533-0.434q0.3-0.36 0.58-0.701l0.533 0.43q-0.275 0.344-0.58 0.706zM89.324 15.399q-0.283-0.361-0.565-0.707l0.533-0.427q0.286 0.351 0.573 0.718zM58.936 14.082l-0.537-0.425q0.299-0.37 0.571-0.711l0.539 0.423q-0.274 0.339-0.574 0.713zM88.181 13.999q-0.297-0.349-0.594-0.682l0.516-0.451q0.305 0.338 0.603 0.693zM60.080 12.657l-0.539-0.424c0.208-0.259 0.401-0.498 0.578-0.713l0.533 0.43c-0.176 0.211-0.363 0.448-0.573 0.705zM86.975 12.651q-0.314-0.334-0.626-0.651l0.492-0.476q0.318 0.323 0.638 0.664zM85.707 11.365q-0.331-0.318-0.661-0.615l0.464-0.503q0.337 0.305 0.675 0.629zM61.236 11.271l-0.513-0.457c0.205-0.229 0.42-0.457 0.639-0.674l0.49 0.478c-0.21 0.213-0.42 0.432-0.615 0.651zM84.366 10.155c-0.229-0.196-0.466-0.389-0.698-0.571l0.429-0.533c0.238 0.187 0.478 0.381 0.715 0.586zM62.499 9.998l-0.467-0.501c0.229-0.207 0.462-0.413 0.7-0.61l0.443 0.521c-0.227 0.19-0.454 0.388-0.676 0.588zM82.952 9.038c-0.244-0.178-0.491-0.353-0.736-0.518l0.387-0.563c0.253 0.17 0.507 0.35 0.762 0.533zM63.879 8.851l-0.418-0.541c0.248-0.187 0.502-0.37 0.756-0.543l0.39 0.561c-0.242 0.165-0.488 0.345-0.726 0.522zM81.46 8.034c-0.258-0.158-0.519-0.311-0.776-0.457l0.337-0.594c0.266 0.147 0.533 0.305 0.802 0.469zM65.362 7.84l-0.362-0.58c0.267-0.163 0.539-0.32 0.808-0.466l0.331 0.597c-0.257 0.139-0.515 0.291-0.774 0.448zM79.888 7.163c-0.27-0.133-0.544-0.26-0.814-0.377l0.276-0.624c0.281 0.121 0.566 0.254 0.846 0.392zM66.936 6.984l-0.299-0.614c0.281-0.134 0.569-0.261 0.855-0.381l0.263 0.629c-0.269 0.114-0.545 0.236-0.814 0.365zM78.239 6.451c-0.283-0.104-0.568-0.201-0.85-0.287l0.204-0.651c0.293 0.090 0.591 0.19 0.886 0.299zM68.594 6.306l-0.229-0.644c0.296-0.101 0.597-0.195 0.895-0.277l0.185 0.656c-0.276 0.078-0.564 0.168-0.847 0.265zM76.526 5.925c-0.29-0.071-0.584-0.133-0.875-0.184l0.123-0.67c0.305 0.054 0.613 0.12 0.914 0.194zM70.318 5.826l-0.144-0.666c0.305-0.065 0.617-0.12 0.924-0.166l0.101 0.674c-0.288 0.046-0.584 0.098-0.876 0.161zM74.766 5.611c-0.296-0.034-0.596-0.059-0.891-0.076l0.034-0.68c0.31 0.015 0.625 0.041 0.936 0.076zM72.088 5.566l-0.056-0.679c0.312-0.025 0.628-0.040 0.939-0.046l0.011 0.681c-0.291 0.007-0.592 0.021-0.888 0.046z"></path>
<path fill="#a4c422" d="M11.246 19.739c0.154 0.070 0.274 0.192 0.339 0.344l0.002 0.004c0.042 0.086 0.066 0.188 0.066 0.295 0 0.063-0.008 0.125-0.024 0.183l0.001-0.005q-0.021 0.043-0.138 0.296t-0.319 0.642-0.521 0.885c-0.247 0.378-0.492 0.705-0.756 1.014l0.012-0.014q-0.425 0.547-0.893 1.052c-0.308 0.332-0.634 0.635-0.982 0.913l-0.018 0.014c-0.324 0.261-0.691 0.493-1.082 0.68l-0.034 0.015c-0.367 0.175-0.793 0.308-1.239 0.378l-0.026 0.003c-0.161 0.025-0.346 0.040-0.535 0.040-0.621 0-1.206-0.156-1.718-0.43l0.019 0.010c-0.73-0.36-1.332-0.882-1.777-1.52l-0.010-0.015c-0.348-0.471-0.63-1.017-0.817-1.605l-0.011-0.040c-0.283-0.733-0.513-1.595-0.65-2.486l-0.009-0.071c-0.079-0.506-0.124-1.089-0.124-1.683 0-0.33 0.014-0.658 0.041-0.981l-0.003 0.042q0.107-0.8 0.223-1.589c0.163-0.936 0.45-1.774 0.849-2.545l-0.023 0.049c0.18-0.336 0.374-0.626 0.593-0.894l-0.008 0.010c0.353-0.43 0.772-0.791 1.245-1.071l0.022-0.012c0.453-0.273 0.986-0.466 1.555-0.546l0.022-0.003c0.186-0.025 0.401-0.040 0.62-0.040 0.402 0 0.792 0.049 1.166 0.141l-0.033-0.007c0.683 0.17 1.281 0.46 1.799 0.851l-0.013-0.009c0.597 0.45 1.020 1.103 1.166 1.854l0.003 0.019c0.030 0.114 0.048 0.245 0.048 0.38 0 0.044-0.002 0.088-0.006 0.131l0-0.006c-0.031 0.248-0.185 0.454-0.4 0.556l-0.004 0.002c-0.076 0.031-0.164 0.049-0.257 0.049-0.16 0-0.308-0.054-0.426-0.145l0.002 0.001c-0.136-0.093-0.255-0.198-0.36-0.314l-0.002-0.002c-0.139-0.138-0.264-0.29-0.374-0.453l-0.007-0.011c-0.405-0.615-1.082-1.023-1.856-1.053l-0.004-0c-0.027-0.001-0.058-0.002-0.090-0.002-0.353 0-0.689 0.074-0.992 0.208l0.016-0.006c-0.362 0.158-0.665 0.391-0.9 0.681l-0.003 0.004c-0.35 0.447-0.62 0.974-0.78 1.548l-0.007 0.031c-0.264 0.807-0.436 1.739-0.478 2.705l-0.001 0.022c-0.004 0.105-0.007 0.227-0.007 0.351 0 0.852 0.114 1.678 0.326 2.463l-0.015-0.066q0.106 0.381 0.202 0.748t0.223 0.726c0.123 0.365 0.267 0.678 0.439 0.973l-0.013-0.025c0.185 0.311 0.411 0.576 0.675 0.796l0.005 0.004c0.38 0.327 0.879 0.526 1.424 0.526 0.106 0 0.209-0.007 0.311-0.022l-0.012 0.001q0.468-0.19 0.894-0.381c0.288-0.168 0.537-0.349 0.767-0.552l-0.005 0.004c0.414-0.297 0.777-0.623 1.101-0.984l0.006-0.006c0.311-0.347 0.611-0.724 0.888-1.119l0.026-0.039c0.212-0.305 0.411-0.654 0.578-1.020l0.018-0.043q0.191-0.453 0.234-0.453c0.064-0.16 0.18-0.289 0.326-0.367l0.004-0.002c0.076-0.039 0.166-0.062 0.262-0.062 0.088 0 0.171 0.019 0.246 0.054l-0.004-0.002z"></path>
<path fill="#a4c422" d="M18.562 19.781c0.161 0.046 0.29 0.157 0.36 0.301l0.002 0.003c0.044 0.074 0.069 0.162 0.069 0.257 0 0.078-0.018 0.153-0.049 0.219l0.001-0.003c-0.038 0.162-0.082 0.299-0.134 0.431l0.007-0.021c-0.085 0.247-0.202 0.565-0.351 0.958s-0.33 0.838-0.542 1.347-0.447 1.026-0.702 1.558q-1.616 3.412-2.999 4.611c-0.099 0.098-0.202 0.194-0.305 0.284-0.103 0.088-0.218 0.169-0.34 0.238l-0.011 0.005c-0.223 0.14-0.484 0.243-0.763 0.292l-0.013 0.002c-0.092 0.016-0.198 0.025-0.306 0.025-0.162 0-0.319-0.021-0.469-0.059l0.013 0.003c-0.266-0.070-0.497-0.19-0.695-0.349l0.003 0.003c-0.212-0.17-0.384-0.381-0.506-0.622l-0.005-0.011c-0.118-0.227-0.214-0.491-0.273-0.769l-0.004-0.021c-0.053-0.242-0.090-0.527-0.105-0.819l-0.001-0.013c-0.006-0.121-0.009-0.262-0.009-0.405 0-1.687 0.453-3.269 1.245-4.629l-0.024 0.044q0.152-0.253 0.287-0.526t0.305-0.568c-0.255-0.055-0.503-0.101-0.744-0.136s-0.482-0.076-0.723-0.116c-0.43-0.097-0.81-0.249-1.156-0.452l0.019 0.010c-0.323-0.188-0.595-0.427-0.814-0.71l-0.005-0.006c-0.209-0.277-0.355-0.613-0.413-0.978l-0.002-0.013c-0.017-0.114-0.027-0.245-0.027-0.379 0-0.309 0.053-0.606 0.15-0.883l-0.006 0.019c0.153-0.491 0.389-0.915 0.696-1.279l-0.005 0.006c0.323-0.366 0.735-0.645 1.203-0.805l0.020-0.006c0.14-0.069 0.302-0.114 0.474-0.126l0.004-0q0.266-0.021 0.5-0.021c0.338 0.002 0.644 0.134 0.872 0.348l-0.001-0.001c0.224 0.22 0.373 0.517 0.404 0.847l0 0.006c0.015 0.105 0.024 0.225 0.024 0.348 0 0.092-0.005 0.183-0.015 0.272l0.001-0.011q-0.032 0.315-0.076 0.61c-0.048 0.285-0.111 0.533-0.191 0.773l0.010-0.036q-0.117 0.359-0.223 0.716c-0.029 0.030-0.049 0.070-0.053 0.115l-0 0.001c-0.012 0.068-0.031 0.128-0.055 0.184l0.002-0.005c0.34 0.042 0.674 0.091 1 0.146 0.131 0.024 0.283 0.038 0.437 0.038 0.192 0 0.379-0.021 0.558-0.062l-0.017 0.003c0.082-0.021 0.175-0.034 0.272-0.034 0.615 0 1.113 0.498 1.113 1.113 0 0.043-0.002 0.086-0.007 0.128l0-0.005c0 0.001 0 0.003 0 0.005 0 0.141-0.023 0.277-0.067 0.404l0.003-0.009c-0.035 0.098-0.072 0.226-0.102 0.356l-0.005 0.025q-0.34 0.99-0.744 1.905t-0.914 1.821c-0.175 0.301-0.344 0.655-0.483 1.023l-0.017 0.050q-0.202 0.548-0.35 1.116c-0.029 0.112-0.053 0.229-0.076 0.358-0.003 0.026-0.005 0.057-0.005 0.088 0 0.122 0.030 0.236 0.084 0.336l-0.002-0.004c0.114-0.070 0.216-0.137 0.305-0.2s0.181-0.13 0.266-0.2c0.274-0.23 0.521-0.471 0.749-0.729l0.007-0.008c0.228-0.258 0.43-0.548 0.598-0.86l0.012-0.024q0.361-0.632 0.702-1.274t0.68-1.316c0.057-0.104 0.114-0.23 0.163-0.36l0.007-0.021c0.085-0.211 0.187-0.457 0.305-0.748s0.248-0.59 0.381-0.906 0.259-0.61 0.372-0.884 0.241-0.593 0.381-0.958c0.072-0.155 0.19-0.278 0.336-0.355l0.004-0.002c0.077-0.043 0.168-0.069 0.266-0.069 0.085 0 0.165 0.019 0.236 0.053l-0.003-0.001zM10.523 19.36c0.182-0.291 0.351-0.628 0.486-0.981l0.014-0.041c0.127-0.333 0.2-0.717 0.2-1.119 0-0.010-0-0.020-0-0.030v0.002c-0.029 0.009-0.061 0.013-0.095 0.013-0.015 0-0.030-0.001-0.045-0.003l0.002 0c-0.008-0.002-0.017-0.004-0.026-0.004-0.018 0-0.036 0.005-0.050 0.014l0-0c-0.155 0.065-0.286 0.158-0.392 0.274l-0.001 0.001c-0.116 0.122-0.217 0.261-0.3 0.41l-0.005 0.010c-0.078 0.138-0.146 0.299-0.197 0.467l-0.005 0.017c-0.030 0.088-0.047 0.19-0.047 0.296 0 0.059 0.005 0.117 0.016 0.173l-0.001-0.006c0.016 0.253 0.201 0.458 0.443 0.505l0.003 0.001z"></path>
<path fill="#a4c422" d="M19.985 22.92c-0.004 0.042-0.006 0.090-0.006 0.139 0 0.203 0.037 0.398 0.105 0.578l-0.004-0.011c0.073 0.184 0.176 0.341 0.305 0.473l-0-0c0.123 0.122 0.272 0.219 0.438 0.281l0.009 0.003c0.163 0.061 0.351 0.103 0.547 0.116l0.006 0c0.078 0.008 0.168 0.012 0.259 0.012 0.26 0 0.512-0.035 0.751-0.1l-0.020 0.005c0.337-0.097 0.63-0.241 0.892-0.427l-0.009 0.006c0.309-0.209 0.577-0.441 0.815-0.702l0.003-0.004c0.232-0.259 0.446-0.544 0.634-0.848l0.015-0.026q0.191-0.358 0.372-0.716l0.372-0.737c0.071-0.152 0.142-0.298 0.213-0.432s0.152-0.277 0.235-0.431c0.099-0.156 0.246-0.274 0.419-0.336l0.006-0.002c0.065-0.023 0.14-0.037 0.218-0.037 0.098 0 0.192 0.021 0.275 0.060l-0.004-0.002c0.267 0.122 0.449 0.387 0.449 0.695 0 0.067-0.009 0.133-0.025 0.195l0.001-0.005c-0.024 0.042-0.040 0.093-0.043 0.146l-0 0.001c0 0.002 0 0.005 0 0.008 0 0.035-0.008 0.069-0.022 0.099l0.001-0.001c-0.334 0.901-0.721 1.675-1.179 2.4l0.031-0.052c-0.486 0.758-1.072 1.402-1.749 1.936l-0.016 0.013c-0.504 0.419-1.105 0.741-1.763 0.929l-0.034 0.008c-0.359 0.099-0.771 0.155-1.196 0.155-0.303 0-0.599-0.029-0.886-0.084l0.029 0.005c-0.671-0.096-1.267-0.362-1.76-0.753l0.008 0.006c-0.487-0.409-0.869-0.929-1.107-1.521l-0.009-0.026c-0.231-0.546-0.365-1.18-0.365-1.846 0-0.062 0.001-0.123 0.003-0.184l-0 0.009c0.026-0.692 0.168-1.342 0.407-1.944l-0.014 0.040c0.244-0.618 0.567-1.151 0.964-1.619l-0.007 0.008c0.378-0.452 0.816-0.836 1.307-1.145l0.023-0.013c0.367-0.231 0.793-0.414 1.246-0.527l0.030-0.006c0.23-0.059 0.494-0.093 0.767-0.093 0.205 0 0.405 0.019 0.599 0.056l-0.020-0.003c0.527 0.088 0.992 0.304 1.377 0.614l-0.006-0.004c0.352 0.283 0.631 0.643 0.811 1.056l0.007 0.018c0.118 0.28 0.187 0.605 0.187 0.946 0 0.131-0.010 0.259-0.029 0.384l0.002-0.014c-0.074 0.504-0.274 0.951-0.568 1.321l0.004-0.006c-0.467 0.615-1.015 1.138-1.635 1.564l-0.024 0.015c-0.378 0.291-0.842 0.487-1.349 0.546l-0.013 0.001c-0.116 0.025-0.249 0.040-0.385 0.040-0.328 0-0.636-0.084-0.904-0.231l0.010 0.005zM19.814 21.804q0.234-0.062 0.436-0.105c0.158-0.033 0.29-0.069 0.419-0.113l-0.026 0.008c0.128-0.028 0.255-0.060 0.381-0.095 0.137-0.038 0.257-0.092 0.367-0.161l-0.006 0.003c0.282-0.163 0.526-0.344 0.747-0.549l-0.002 0.002c0.232-0.218 0.448-0.444 0.649-0.683l0.010-0.012c0.076-0.098 0.146-0.209 0.207-0.325l0.006-0.012c0.053-0.108 0.084-0.236 0.084-0.37 0-0.18-0.055-0.347-0.15-0.485l0.002 0.003c-0.144-0.204-0.378-0.335-0.643-0.335-0.042 0-0.083 0.003-0.124 0.010l0.004-0.001c-0.127 0.028-0.259 0.060-0.393 0.095-0.141 0.037-0.265 0.091-0.377 0.161l0.006-0.003c-0.492 0.318-0.883 0.753-1.14 1.267l-0.008 0.018c-0.235 0.491-0.394 1.061-0.445 1.663l-0.001 0.018z"></path>
<path fill="#a4c422" d="M37.701 19.97c0.085 0.051 0.142 0.142 0.142 0.247 0 0.032-0.005 0.063-0.015 0.092l0.001-0.002c0.012 0.036 0.019 0.077 0.019 0.12 0 0.090-0.031 0.173-0.084 0.239l0.001-0.001c-0.050 0.115-0.101 0.212-0.158 0.305l0.006-0.010q-0.152 0.273-0.405 0.716t-0.595 0.999q-0.341 0.558-0.723 1.148-0.234 0.381-0.457 0.686t-0.436 0.6q-0.234 0.358-0.5 0.715t-0.521 0.716c-0.22 0.305-0.45 0.573-0.701 0.821l-0.001 0.001c-0.209 0.19-0.462 0.335-0.742 0.417l-0.013 0.003c-0.119 0.035-0.256 0.056-0.397 0.056-0.127 0-0.25-0.016-0.368-0.047l0.010 0.002c-0.259-0.073-0.481-0.205-0.659-0.381l0 0c-0.201-0.196-0.355-0.44-0.443-0.714l-0.003-0.012c-0.122-0.291-0.192-0.629-0.192-0.984 0-0.010 0-0.019 0-0.029v0.001q0.021-0.401 0.053-0.811t0.076-0.831q0.021-0.106 0.043-0.222c0.014-0.083 0.022-0.179 0.022-0.277 0-0.010-0-0.019-0-0.029l0 0.001c-0.071 0.071-0.131 0.126-0.181 0.168-0.048 0.040-0.088 0.090-0.116 0.145l-0.001 0.003-0.521 0.6q-0.266 0.305-0.564 0.6-0.213 0.19-0.446 0.369c-0.148 0.114-0.315 0.222-0.491 0.316l-0.020 0.010c-0.311 0.193-0.688 0.307-1.091 0.307-0.167 0-0.33-0.020-0.486-0.057l0.014 0.003c-0.541-0.142-0.986-0.483-1.26-0.939l-0.005-0.009c-0.21-0.305-0.375-0.661-0.473-1.043l-0.005-0.023c-0.067-0.259-0.106-0.556-0.106-0.861 0-0.093 0.004-0.185 0.011-0.277l-0.001 0.012c0.066-0.942 0.311-1.813 0.699-2.599l-0.018 0.041c0.425-0.834 0.987-1.537 1.666-2.107l0.010-0.008c0.511-0.46 1.162-0.774 1.881-0.871l0.018-0.002c0.113-0.012 0.244-0.018 0.377-0.018 0.613 0 1.193 0.143 1.708 0.397l-0.023-0.010c0.222 0.114 0.414 0.24 0.59 0.385l-0.005-0.004c0.192 0.152 0.386 0.305 0.585 0.442 0.029-0.029 0.050-0.064 0.063-0.103l0.001-0.002c0.025-0.058 0.062-0.107 0.106-0.147l0-0c0.090-0.132 0.208-0.239 0.345-0.314l0.005-0.003c0.098-0.048 0.213-0.077 0.335-0.077 0.051 0 0.1 0.005 0.149 0.014l-0.005-0.001c0.339 0.045 0.611 0.286 0.7 0.604l0.001 0.006c0.037 0.115 0.059 0.248 0.059 0.386 0 0.11-0.014 0.216-0.039 0.318l0.002-0.009q-0.064 0.381-0.152 0.758t-0.192 0.762q-0.298 0.906-0.574 1.8t-0.553 1.8c-0.061 0.184-0.12 0.415-0.164 0.651l-0.005 0.035q-0.064 0.347-0.106 0.706c-0.026 0.059-0.041 0.128-0.043 0.2v0.264c0.099-0.070 0.181-0.127 0.245-0.168 0.069-0.048 0.129-0.104 0.179-0.167l0.001-0.002c0.152-0.197 0.315-0.381 0.478-0.558s0.322-0.361 0.478-0.558q0.68-0.884 1.425-2.084t1.467-2.526c0.081-0.149 0.222-0.258 0.389-0.294l0.004-0.001c0.057-0.015 0.122-0.024 0.189-0.024 0.113 0 0.22 0.024 0.316 0.068l-0.005-0.002c0.073 0.051 0.137 0.106 0.196 0.165v0zM27.685 23.634c0.683-0.489 1.284-0.989 1.845-1.529l-0.005 0.005c0.55-0.532 1.068-1.086 1.557-1.665l0.027-0.033c-0.125-0.268-0.314-0.489-0.548-0.649l-0.005-0.004c-0.127-0.046-0.273-0.072-0.425-0.072-0.129 0-0.253 0.019-0.37 0.054l0.009-0.002c-0.155 0.036-0.29 0.083-0.418 0.142l0.013-0.006c-0.14 0.062-0.259 0.144-0.361 0.243l0-0c-0.742 0.65-1.262 1.537-1.444 2.541l-0.004 0.027c-0.019 0.087-0.029 0.187-0.029 0.29 0 0.24 0.058 0.467 0.162 0.666l-0.004-0.008z"></path>
<path fill="#a4c422" d="M36.277 17.223c-0.068 0.020-0.145 0.031-0.226 0.031-0.003 0-0.006-0-0.009-0h0q-0.404 0.106-0.83 0.19t-0.85 0.126c-0.075 0.007-0.162 0.011-0.25 0.011s-0.175-0.004-0.261-0.011l0.011 0.001c-0.184-0.014-0.354-0.059-0.509-0.13l0.009 0.004c-0.188-0.062-0.346-0.171-0.467-0.314l-0.001-0.002c-0.105-0.124-0.177-0.278-0.201-0.448l-0.001-0.005c-0.004-0.037-0.007-0.079-0.007-0.122 0-0.138 0.026-0.269 0.074-0.39l-0.002 0.007c0.072-0.189 0.185-0.348 0.328-0.473l0.001-0.001c0.089-0.064 0.193-0.13 0.301-0.191l0.017-0.009q0.171-0.094 0.341-0.2c0.318-0.174 0.697-0.344 1.089-0.487l0.059-0.019c0.341-0.125 0.748-0.235 1.168-0.309l0.044-0.007c0.099-0.028 0.191-0.053 0.277-0.076s0.178-0.039 0.277-0.053q0.021-0.315 0.053-0.579t0.076-0.558q0.085-0.652 0.191-1.263c0.015-0.108 0.038-0.204 0.068-0.297l-0.004 0.013c0.029-0.091 0.057-0.179 0.085-0.264 0.156-0.35 0.501-0.59 0.902-0.59 0.012 0 0.024 0 0.035 0.001l-0.002-0c0.004-0 0.008-0 0.013-0 0.196 0 0.376 0.063 0.523 0.17l-0.003-0.002c0.159 0.118 0.283 0.275 0.359 0.456l0.003 0.007c0.067 0.164 0.12 0.355 0.151 0.554l0.002 0.015q0.085 0.674 0.127 1.453c0.026 0.059 0.041 0.128 0.043 0.2v0c0 0.071 0.008 0.14 0.023 0.206l-0.001-0.007c0.095-0.013 0.206-0.021 0.318-0.021h0.001c0.106-0 0.209-0.015 0.306-0.044l-0.008 0.002c0.003 0 0.006 0 0.010 0 0.199 0 0.395-0.011 0.588-0.033l-0.024 0.002c0.069-0.009 0.15-0.014 0.231-0.014 0.107 0 0.211 0.009 0.313 0.025l-0.011-0.002c0.264 0.014 0.511 0.075 0.737 0.174l-0.014-0.005c0.233 0.104 0.422 0.271 0.55 0.479l0.003 0.005c0.144 0.175 0.232 0.401 0.232 0.647 0 0.179-0.046 0.348-0.128 0.495l0.003-0.005c-0.081 0.165-0.209 0.296-0.367 0.379l-0.005 0.002c-0.145 0.067-0.315 0.105-0.494 0.105-0.010 0-0.019-0-0.029-0l0.001 0c-0.393 0.015-0.766 0.064-1.126 0.145l0.041-0.008q-0.533 0.116-1.085 0.242c0 0.003 0 0.006 0 0.010 0 0.064-0.008 0.126-0.023 0.185l0.001-0.005c-0.014 0.054-0.021 0.117-0.021 0.181 0 0.003 0 0.006 0 0.009v-0q0.043 1.705 0.043 3.411t0.021 3.411q0.043 1.199 0.106 2.401c0.049 0.89 0.147 1.714 0.295 2.521l-0.018-0.121c0.025 0.056 0.040 0.12 0.043 0.188l0 0.001v0.19c-0.027 0.139-0.075 0.263-0.141 0.374l0.003-0.005c-0.070 0.108-0.176 0.187-0.301 0.221l-0.004 0.001c-0.066 0.030-0.143 0.047-0.224 0.047-0.060 0-0.119-0.010-0.173-0.027l0.004 0.001c-0.119-0.052-0.22-0.123-0.304-0.21l-0-0c-0.142-0.158-0.252-0.348-0.316-0.558l-0.003-0.011q-0.553-1.705-1.010-3.421c-0.281-1.010-0.503-2.21-0.62-3.44l-0.007-0.087q-0.107-1.010-0.127-2.001t-0.021-2v-0.548z"></path>
<path fill="#a4c422" d="M49.1 19.802c0.157 0.072 0.275 0.203 0.329 0.364l0.001 0.004c0.029 0.070 0.045 0.15 0.045 0.235 0 0.094-0.021 0.183-0.058 0.264l0.002-0.004c-0.053 0.084-0.106 0.184-0.152 0.288l-0.007 0.017q-0.139 0.285-0.381 0.738t-0.564 1.021q-0.318 0.568-0.68 1.158c-0.106 0.2-0.226 0.373-0.364 0.529l0.002-0.003c-0.379 0.598-0.744 1.106-1.133 1.593l0.027-0.035c-0.163 0.204-0.334 0.386-0.518 0.554l-0.004 0.003c-0.184 0.169-0.389 0.319-0.611 0.444l-0.016 0.009c-0.251 0.17-0.561 0.272-0.894 0.272-0.518 0-0.979-0.245-1.273-0.625l-0.003-0.004c-0.198-0.219-0.368-0.468-0.502-0.738l-0.009-0.019c-0.115-0.233-0.217-0.506-0.291-0.791l-0.007-0.031c-0.187-0.716-0.309-1.547-0.341-2.401l-0.001-0.021c-0.004-0.11-0.006-0.24-0.006-0.37 0-0.74 0.072-1.464 0.209-2.165l-0.012 0.071c0.019-0.151 0.049-0.286 0.090-0.416l-0.004 0.016c0.047-0.153 0.105-0.285 0.175-0.409l-0.005 0.010c0.167-0.463 0.602-0.787 1.113-0.787 0.035 0 0.070 0.002 0.104 0.005l-0.004-0c0.249 0.029 0.468 0.136 0.638 0.295l-0.001-0.001c0.191 0.188 0.327 0.433 0.38 0.707l0.001 0.008c0.079 0.284 0.126 0.611 0.127 0.948v0.001q-0.043 0.674-0.117 1.326c-0.050 0.435-0.088 0.878-0.117 1.326-0.014 0.252-0.032 0.502-0.053 0.748s-0.046 0.487-0.076 0.726v0.229c0 0.076 0.016 0.148 0.044 0.214l-0.001-0.004c0.025 0.109 0.073 0.205 0.139 0.285l-0.001-0.001q0.117 0.158 0.436-0.032h0.021l0.021-0.021 0.043-0.042c0.028 0 0.043 0 0.043-0.011s0.007-0.011 0.021-0.011l0.107-0.106 0.152-0.147c0.214-0.217 0.416-0.447 0.603-0.688l0.013-0.017c0.246-0.317 0.497-0.677 0.73-1.050l0.032-0.055q0.361-0.568 0.659-1.115t0.533-0.99q0.255-0.526 0.489-0.99c0.083-0.151 0.216-0.267 0.376-0.325l0.005-0.002c0.067-0.027 0.144-0.042 0.224-0.042 0.098 0 0.19 0.023 0.272 0.063l-0.004-0.002zM43.995 17.022c-0.020 0.001-0.043 0.001-0.066 0.001-0.358 0-0.687-0.123-0.947-0.33l0.003 0.002c-0.269-0.226-0.439-0.563-0.439-0.939 0-0.278 0.093-0.535 0.249-0.74l-0.002 0.003c0.16-0.224 0.404-0.38 0.686-0.421l0.005-0.001c0.065-0.015 0.139-0.024 0.216-0.024 0.214 0 0.412 0.068 0.574 0.184l-0.003-0.002c0.224 0.163 0.385 0.402 0.445 0.678l0.001 0.007c0.022 0.061 0.044 0.138 0.062 0.216l0.002 0.013c0.016 0.080 0.038 0.151 0.067 0.218l-0.003-0.008c0.045 0.102 0.072 0.221 0.072 0.346 0 0.181-0.055 0.349-0.15 0.488l0.002-0.003c-0.147 0.196-0.379 0.321-0.64 0.321-0.047 0-0.094-0.004-0.139-0.012l0.005 0.001z"></path>
<path fill="#a4c422" d="M58.606 19.845c0.146 0.090 0.255 0.229 0.304 0.394l0.001 0.005c0.017 0.054 0.028 0.116 0.028 0.181 0 0.112-0.030 0.216-0.082 0.306l0.002-0.003c-0.217 0.348-0.43 0.647-0.661 0.93l0.013-0.016c-0.267 0.334-0.552 0.63-0.863 0.898l-0.009 0.007c-0.3 0.26-0.639 0.488-1.003 0.673l-0.028 0.013c-0.334 0.172-0.729 0.272-1.148 0.273h-0c-0.049-0.001-0.097-0.008-0.142-0.022l0.004 0.001c-0.041-0.013-0.088-0.020-0.137-0.021h-0.001l-0.106 0.315q-0.064 0.148-0.107 0.275c-0.030 0.088-0.066 0.163-0.11 0.234l0.003-0.005q-0.191 0.421-0.381 0.853t-0.426 0.853c-0.138 0.268-0.309 0.497-0.51 0.695l-0 0c-0.287 0.339-0.706 0.558-1.177 0.578l-0.003 0c-0.472-0.002-0.898-0.199-1.201-0.514l-0.001-0.001c-0.231-0.205-0.435-0.433-0.609-0.682l-0.008-0.012c-0.114-0.196-0.223-0.389-0.33-0.579-0.094-0.163-0.184-0.354-0.257-0.552l-0.009-0.027c-0.341-0.758-0.654-1.663-0.889-2.599l-0.025-0.117c-0.204-0.79-0.377-1.748-0.481-2.727l-0.008-0.092c-0.018-0.081-0.028-0.174-0.028-0.269 0-0.047 0.002-0.092 0.007-0.138l-0 0.006c0.014-0.126 0.029-0.252 0.043-0.381 0.054-0.42 0.402-0.743 0.828-0.758l0.001-0c0.038-0.006 0.083-0.010 0.128-0.010 0.157 0 0.303 0.043 0.429 0.117l-0.004-0.002c0.175 0.107 0.308 0.267 0.379 0.457l0.002 0.006c0.080 0.181 0.146 0.393 0.188 0.613l0.003 0.019q0.298 1.285 0.638 2.526t0.787 2.485q0.106 0.295 0.223 0.568t0.223 0.568c0.133-0.086 0.246-0.191 0.338-0.312l0.002-0.003c0.129-0.158 0.254-0.333 0.369-0.517l0.012-0.021c0.114-0.177 0.234-0.391 0.343-0.611l0.019-0.041c0.095-0.187 0.195-0.42 0.283-0.659l0.015-0.047c-0.053-0.038-0.099-0.084-0.137-0.135l-0.001-0.002c-0.037-0.050-0.075-0.095-0.117-0.136v0c-0.484-0.5-0.884-1.086-1.175-1.731l-0.015-0.038c-0.271-0.603-0.46-1.302-0.531-2.036l-0.002-0.027c-0.022-0.172-0.034-0.372-0.034-0.574 0-0.439 0.059-0.865 0.17-1.27l-0.008 0.034c0.18-0.625 0.496-1.163 0.916-1.601l-0.001 0.001c0.202-0.21 0.425-0.398 0.666-0.559l0.014-0.009c0.235-0.157 0.523-0.251 0.834-0.251 0.123 0 0.242 0.015 0.356 0.042l-0.010-0.002c0.405 0.109 0.738 0.366 0.942 0.709l0.004 0.007c0.142 0.185 0.252 0.403 0.316 0.64l0.003 0.013c0.049 0.183 0.094 0.412 0.124 0.645l0.003 0.029c0.053 0.308 0.083 0.663 0.083 1.025 0 0.102-0.002 0.204-0.007 0.305l0.001-0.014q-0.032 0.642-0.095 1.274c-0.072 0.449-0.146 0.892-0.223 1.326s-0.152 0.871-0.223 1.306c-0.027 0.038-0.043 0.085-0.043 0.135 0 0 0 0.001 0 0.001v-0c0 0.001 0 0.002 0 0.003 0 0.048-0.008 0.094-0.022 0.136l0.001-0.003c0.349-0.021 0.663-0.151 0.914-0.357l-0.003 0.002c0.29-0.225 0.548-0.463 0.783-0.722l0.004-0.005c0.195-0.212 0.38-0.442 0.549-0.684l0.014-0.021c0.070-0.119 0.147-0.223 0.235-0.317l-0.001 0.001c0.071-0.152 0.205-0.264 0.368-0.304l0.004-0.001c0.053-0.017 0.115-0.027 0.178-0.027 0.109 0 0.212 0.030 0.3 0.082l-0.003-0.002zM53.502 17.254c-0.032 0.252-0.051 0.542-0.051 0.838 0 0.325 0.022 0.644 0.066 0.957l-0.004-0.036c0.092 0.656 0.222 1.236 0.393 1.798l-0.021-0.082c0.028 0.071 0.056 0.137 0.085 0.2s0.056 0.13 0.085 0.2l0.085-0.085c0.169-0.541 0.331-1.222 0.453-1.917l0.015-0.104c0.063-0.356 0.098-0.766 0.098-1.184 0-0.31-0.020-0.616-0.058-0.916l0.004 0.036c0-0.003 0-0.006 0-0.009 0-0.124-0.016-0.245-0.045-0.36l0.002 0.010c-0.035-0.137-0.072-0.249-0.114-0.358l0.007 0.021c-0.034-0.077-0.086-0.141-0.151-0.189l-0.001-0.001c-0.057-0.049-0.131-0.081-0.212-0.084l-0.001-0c-0.149 0.028-0.271 0.122-0.339 0.25l-0.001 0.003c-0.123 0.289-0.225 0.628-0.29 0.98l-0.005 0.031z"></path>
<path fill="#a4c422" d="M60.032 22.92c-0.004 0.042-0.006 0.091-0.006 0.14 0 0.203 0.037 0.397 0.105 0.576l-0.004-0.011c0.074 0.184 0.178 0.342 0.309 0.473l-0-0c0.123 0.122 0.272 0.219 0.438 0.281l0.009 0.003c0.163 0.061 0.351 0.103 0.547 0.116l0.006 0c0.078 0.008 0.168 0.012 0.259 0.012 0.26 0 0.512-0.035 0.751-0.1l-0.020 0.005c0.337-0.097 0.63-0.241 0.892-0.427l-0.009 0.006c0.309-0.209 0.578-0.441 0.816-0.702l0.003-0.003c0.232-0.259 0.446-0.544 0.634-0.848l0.015-0.026q0.191-0.358 0.372-0.716l0.372-0.737c0.071-0.152 0.142-0.298 0.213-0.432s0.152-0.277 0.234-0.431c0.099-0.156 0.246-0.274 0.419-0.336l0.006-0.002c0.065-0.023 0.14-0.037 0.218-0.037 0.098 0 0.192 0.021 0.275 0.060l-0.004-0.002c0.267 0.122 0.449 0.387 0.449 0.695 0 0.067-0.009 0.133-0.025 0.195l0.001-0.005c-0.024 0.042-0.040 0.093-0.043 0.146l-0 0.001c0 0.003 0 0.006 0 0.010 0 0.035-0.008 0.068-0.021 0.098l0.001-0.001c-0.335 0.901-0.722 1.675-1.18 2.399l0.031-0.052c-0.486 0.757-1.073 1.401-1.75 1.934l-0.017 0.013c-0.504 0.419-1.105 0.741-1.762 0.929l-0.034 0.008c-0.359 0.099-0.77 0.155-1.195 0.155-0.303 0-0.599-0.029-0.886-0.084l0.029 0.005c-0.671-0.097-1.267-0.363-1.76-0.753l0.008 0.006c-0.487-0.409-0.868-0.929-1.107-1.521l-0.009-0.026c-0.231-0.546-0.365-1.18-0.365-1.847 0-0.061 0.001-0.123 0.003-0.184l-0 0.009c0.026-0.692 0.168-1.342 0.407-1.944l-0.014 0.040c0.244-0.618 0.567-1.151 0.964-1.619l-0.007 0.008c0.377-0.452 0.816-0.836 1.306-1.145l0.023-0.013c0.367-0.231 0.793-0.414 1.246-0.527l0.030-0.006c0.223-0.056 0.479-0.088 0.742-0.088 0.211 0 0.417 0.020 0.617 0.060l-0.020-0.003c0.527 0.088 0.992 0.303 1.377 0.614l-0.006-0.004c0.353 0.283 0.631 0.643 0.812 1.056l0.007 0.018c0.118 0.28 0.187 0.605 0.187 0.946 0 0.13-0.010 0.258-0.029 0.383l0.002-0.014c-0.073 0.504-0.274 0.951-0.568 1.321l0.004-0.006c-0.467 0.615-1.015 1.138-1.635 1.564l-0.024 0.015c-0.377 0.291-0.842 0.487-1.348 0.546l-0.013 0.001c-0.112 0.024-0.241 0.037-0.374 0.037-0.331 0-0.643-0.086-0.914-0.236l0.010 0.005zM59.862 21.804c0.152-0.041 0.305-0.076 0.436-0.105 0.159-0.033 0.291-0.069 0.42-0.113l-0.026 0.008c0.127-0.028 0.255-0.060 0.381-0.095 0.138-0.038 0.258-0.092 0.368-0.161l-0.006 0.003c0.282-0.163 0.526-0.344 0.747-0.549l-0.003 0.002c0.232-0.217 0.447-0.444 0.648-0.683l0.010-0.012c0.076-0.098 0.147-0.209 0.208-0.325l0.006-0.012c0.053-0.108 0.084-0.236 0.084-0.37 0-0.18-0.055-0.347-0.15-0.485l0.002 0.003c-0.143-0.204-0.378-0.335-0.642-0.335-0.042 0-0.084 0.003-0.124 0.010l0.004-0.001c-0.127 0.028-0.259 0.060-0.394 0.095-0.141 0.037-0.265 0.091-0.378 0.161l0.006-0.003c-0.492 0.318-0.883 0.753-1.141 1.267l-0.008 0.018c-0.236 0.49-0.395 1.061-0.447 1.663l-0.001 0.018z"></path>
<path fill="#1bb4ed" d="M81.489 24.645c0.033-0.048 0.076-0.087 0.125-0.115l0.002-0.001c0.037-0.016 0.066-0.042 0.085-0.075l0-0.001q0.318-0.505 0.627-0.99t0.627-0.968c0.040-0.059 0.064-0.132 0.064-0.211s-0.024-0.151-0.064-0.212l0.001 0.001c-0.326-0.66-0.569-1.426-0.686-2.232l-0.005-0.042c-0.061-0.425-0.096-0.916-0.096-1.415 0-0.333 0.016-0.663 0.046-0.988l-0.003 0.042q0.042-0.526 0.138-1.067c0.068-0.385 0.173-0.728 0.316-1.050l-0.011 0.029c0.099-0.259 0.199-0.474 0.312-0.681l-0.014 0.028q0.17-0.315 0.341-0.652c0.056-0.070 0.113-0.137 0.17-0.2 0.058-0.065 0.121-0.124 0.188-0.177l0.003-0.002c0.195-0.25 0.496-0.408 0.835-0.408 0.48 0 0.886 0.32 1.014 0.759l0.002 0.007c0.091 0.198 0.161 0.429 0.2 0.67l0.002 0.016c0.034 0.212 0.053 0.456 0.053 0.705v0c-0.001 0.587-0.043 1.164-0.124 1.728l0.008-0.065q-0.117 0.843-0.305 1.643-0.152 0.653-0.319 1.253t-0.34 1.211c-0.025 0.091-0.044 0.199-0.053 0.31l-0 0.006c0 0 0 0 0 0.001 0 0.118 0.053 0.223 0.137 0.293l0.001 0c0.095 0.062 0.204 0.112 0.321 0.146l0.009 0.002c0.030 0.007 0.063 0.010 0.098 0.010 0.094 0 0.181-0.027 0.254-0.075l-0.002 0.001c0.385-0.177 0.718-0.384 1.019-0.628l-0.009 0.007c0.31-0.254 0.569-0.557 0.768-0.899l0.008-0.016c0.033-0.082 0.069-0.151 0.109-0.217l-0.004 0.006c0.040-0.067 0.091-0.123 0.151-0.167l0.002-0.001c0.086-0.149 0.245-0.249 0.426-0.249 0.085 0 0.165 0.022 0.235 0.060l-0.003-0.001c0.192 0.105 0.321 0.306 0.321 0.537 0 0.019-0.001 0.037-0.002 0.055l0-0.002c-0.001 0.107-0.024 0.208-0.065 0.299l0.002-0.005c-0.121 0.445-0.343 0.827-0.639 1.138l0.001-0.001c-0.44 0.519-0.952 0.959-1.525 1.31l-0.027 0.016c-0.313 0.182-0.678 0.315-1.066 0.378l-0.019 0.003c-0.054 0.007-0.117 0.011-0.181 0.011-0.358 0-0.688-0.123-0.95-0.329l0.003 0.003c-0.043 0.070-0.082 0.136-0.117 0.2-0.031 0.054-0.063 0.12-0.092 0.188l-0.004 0.012q-0.276 0.548-0.552 1.095t-0.574 1.096c-0.071 0.112-0.142 0.221-0.213 0.325-0.078 0.114-0.162 0.214-0.255 0.304l-0 0c-0.294 0.343-0.727 0.559-1.211 0.559-0.474 0-0.899-0.207-1.191-0.536l-0.001-0.002c-0.277-0.308-0.512-0.662-0.691-1.047l-0.011-0.026c-0.183-0.377-0.336-0.816-0.439-1.275l-0.008-0.041q-0.152-0.686-0.255-1.358-0.043-0.421-0.076-0.853c-0.021-0.287-0.046-0.571-0.076-0.853 0-0.001 0-0.002 0-0.003 0-0.066-0.004-0.13-0.012-0.193l0.001 0.008c-0.015-0.074-0.049-0.138-0.096-0.19l0 0q-0.043 0.212-0.095 0.4c-0.036 0.126-0.067 0.252-0.095 0.381q-0.299 1.074-0.574 2.116t-0.574 2.095c-0.071 0.197-0.146 0.39-0.224 0.58-0.096 0.229-0.192 0.42-0.299 0.603l0.013-0.024c-0.146 0.283-0.324 0.526-0.534 0.738l0-0c-0.27 0.257-0.63 0.422-1.028 0.442l-0.004 0c-0.014 0-0.031 0.001-0.047 0.001-0.383 0-0.734-0.135-1.009-0.361l0.003 0.002c-0.151-0.122-0.287-0.25-0.412-0.387l-0.003-0.003c-0.132-0.144-0.248-0.307-0.344-0.482l-0.007-0.013q-0.234-0.422-0.457-0.896c-0.123-0.249-0.256-0.565-0.372-0.89l-0.021-0.068c-0.392-1.052-0.738-2.314-0.978-3.613l-0.022-0.145c-0.214-1.14-0.359-2.479-0.403-3.843l-0.001-0.043c-0.006-0.163-0.009-0.355-0.009-0.547 0-0.754 0.050-1.495 0.146-2.223l-0.009 0.085c0.13-0.993 0.317-1.873 0.565-2.728l-0.032 0.127c0.062-0.246 0.134-0.456 0.223-0.658l-0.010 0.026q0.127-0.295 0.276-0.59c0.156-0.441 0.569-0.751 1.054-0.751 0.063 0 0.125 0.005 0.186 0.015l-0.007-0.001c0.248 0.028 0.463 0.153 0.608 0.335l0.001 0.002c0.167 0.214 0.272 0.483 0.287 0.775l0 0.003c0.028 0.197 0.053 0.389 0.076 0.579 0.009 0.075 0.014 0.163 0.014 0.252 0 0.116-0.009 0.229-0.026 0.34l0.002-0.012q-0.107 2.296 0.010 4.537t0.351 4.537q0.064 0.802 0.181 1.611t0.219 1.617c0.028 0.067 0.054 0.148 0.074 0.232l0.002 0.011c0.021 0.091 0.039 0.187 0.053 0.284h0.106c0.069-0.12 0.14-0.265 0.203-0.415l0.010-0.027q0.381-0.862 0.681-1.748t0.574-1.81q0.552-1.959 1.095-3.906t1.095-3.906q0.127-0.358 0.245-0.727t0.267-0.726c0.088-0.238 0.226-0.439 0.402-0.599l0.001-0.001c0.171-0.138 0.391-0.222 0.63-0.222 0.018 0 0.036 0 0.053 0.001l-0.002-0c0.013-0.001 0.028-0.001 0.043-0.001 0.249 0 0.478 0.083 0.661 0.224l-0.003-0.002c0.188 0.155 0.339 0.349 0.442 0.569l0.004 0.010c0.105 0.229 0.187 0.494 0.231 0.772l0.002 0.018c0.024 0.146 0.038 0.315 0.038 0.487 0 0.114-0.006 0.227-0.018 0.338l0.001-0.014q-0.021 0.99-0.042 1.969t-0.043 1.989q-0.043 1.2-0.107 2.421t-0.085 2.463c-0.016 0.169-0.024 0.367-0.024 0.566 0 0.149 0.005 0.298 0.015 0.445l-0.001-0.020q0.031 0.484 0.032 0.968c0.024 0.066 0.042 0.143 0.053 0.223l0.001 0.006c0.011 0.095 0.029 0.181 0.055 0.264l-0.003-0.010zM83.998 19.591c0.116-0.3 0.212-0.654 0.272-1.021l0.004-0.032q0.127-0.695 0.202-1.442t0.085-1.371c0.005-0.057 0.008-0.124 0.008-0.191 0-0.221-0.031-0.434-0.088-0.636l0.004 0.016c-0.141 0.309-0.262 0.671-0.344 1.048l-0.007 0.036c-0.084 0.354-0.155 0.788-0.198 1.231l-0.003 0.043c-0.035 0.327-0.055 0.706-0.055 1.090 0 0.061 0.001 0.122 0.001 0.183l-0-0.009c0.002 0.375 0.045 0.738 0.126 1.088l-0.006-0.033z"></path>
<path fill="#1bb4ed" d="M89.635 22.92c-0.004 0.042-0.006 0.090-0.006 0.139 0 0.203 0.037 0.398 0.105 0.578l-0.004-0.011c0.074 0.184 0.178 0.342 0.309 0.473l-0-0c0.123 0.122 0.272 0.219 0.437 0.281l0.009 0.003c0.163 0.061 0.351 0.103 0.547 0.116l0.006 0c0.078 0.008 0.168 0.012 0.259 0.012 0.26 0 0.512-0.035 0.751-0.1l-0.020 0.005c0.337-0.097 0.63-0.241 0.892-0.427l-0.009 0.006c0.309-0.209 0.578-0.441 0.816-0.702l0.003-0.003c0.232-0.259 0.446-0.544 0.634-0.848l0.015-0.026q0.191-0.358 0.372-0.716l0.372-0.737c0.071-0.152 0.142-0.298 0.213-0.432s0.152-0.277 0.234-0.431c0.099-0.156 0.246-0.274 0.419-0.336l0.006-0.002c0.065-0.023 0.14-0.037 0.218-0.037 0.098 0 0.192 0.021 0.275 0.060l-0.004-0.002c0.267 0.122 0.449 0.387 0.449 0.695 0 0.067-0.009 0.133-0.025 0.195l0.001-0.005c-0.024 0.042-0.040 0.093-0.043 0.146l-0 0.001c0 0.003 0 0.006 0 0.009 0 0.035-0.008 0.069-0.021 0.099l0.001-0.002c-0.335 0.901-0.722 1.675-1.18 2.4l0.031-0.052c-0.486 0.758-1.072 1.402-1.749 1.936l-0.016 0.013c-0.504 0.419-1.105 0.741-1.762 0.929l-0.034 0.008c-0.359 0.099-0.77 0.155-1.195 0.155-0.303 0-0.599-0.029-0.886-0.084l0.029 0.005c-0.671-0.097-1.267-0.363-1.76-0.753l0.008 0.006c-0.487-0.409-0.868-0.929-1.107-1.521l-0.009-0.026c-0.23-0.545-0.364-1.179-0.364-1.844 0-0.062 0.001-0.124 0.004-0.186l-0 0.009c0.026-0.692 0.168-1.342 0.407-1.944l-0.014 0.040c0.244-0.618 0.567-1.151 0.964-1.619l-0.007 0.008c0.377-0.452 0.816-0.836 1.306-1.145l0.023-0.013c0.367-0.231 0.793-0.414 1.246-0.527l0.030-0.006c0.223-0.056 0.479-0.088 0.742-0.088 0.211 0 0.417 0.020 0.617 0.060l-0.020-0.003c0.527 0.088 0.992 0.304 1.377 0.614l-0.006-0.004c0.353 0.283 0.631 0.643 0.812 1.056l0.007 0.018c0.118 0.28 0.187 0.606 0.187 0.948 0 0.13-0.010 0.257-0.029 0.382l0.002-0.014c-0.074 0.504-0.274 0.951-0.568 1.321l0.004-0.006c-0.467 0.615-1.016 1.138-1.636 1.564l-0.024 0.015c-0.377 0.291-0.841 0.487-1.347 0.546l-0.013 0.001c-0.112 0.024-0.241 0.037-0.373 0.037-0.333 0-0.645-0.086-0.916-0.237l0.010 0.005zM89.465 21.804c0.152-0.041 0.305-0.076 0.436-0.105 0.159-0.033 0.291-0.069 0.42-0.113l-0.026 0.008c0.128-0.028 0.255-0.060 0.381-0.095 0.137-0.038 0.258-0.092 0.368-0.161l-0.006 0.003c0.282-0.163 0.526-0.344 0.747-0.549l-0.002 0.002c0.232-0.218 0.448-0.444 0.649-0.683l0.010-0.012c0.076-0.098 0.147-0.209 0.208-0.325l0.006-0.012c0.053-0.108 0.084-0.236 0.084-0.37 0-0.18-0.055-0.347-0.15-0.485l0.002 0.003c-0.144-0.204-0.378-0.335-0.643-0.335-0.042 0-0.083 0.003-0.124 0.010l0.004-0.001c-0.127 0.028-0.259 0.060-0.394 0.095-0.141 0.037-0.265 0.091-0.378 0.161l0.006-0.003c-0.492 0.318-0.883 0.753-1.141 1.267l-0.008 0.018c-0.236 0.49-0.396 1.061-0.448 1.662l-0.001 0.018z"></path>
<path fill="#1bb4ed" d="M108.094 20.223c0.059 0.087 0.095 0.195 0.095 0.311 0 0.066-0.011 0.129-0.032 0.187l0.001-0.004c-0.072 0.194-0.206 0.351-0.377 0.45l-0.004 0.002c-0.1 0.070-0.202 0.137-0.309 0.2s-0.216 0.123-0.33 0.179c-0.069 0.069-0.155 0.12-0.251 0.147l-0.004 0.001c-0.114 0.070-0.219 0.134-0.318 0.189-0.086 0.056-0.174 0.114-0.267 0.168-0.070 0.045-0.15 0.088-0.234 0.123l-0.011 0.004c-0.072 0.041-0.135 0.081-0.191 0.116-0.073 0.046-0.136 0.091-0.196 0.139l0.004-0.003v0.316c0.012 0.166 0.019 0.36 0.019 0.556 0 0.454-0.038 0.9-0.111 1.333l0.007-0.047c-0.116 0.674-0.285 1.271-0.511 1.841l0.022-0.062c-0.094 0.264-0.202 0.491-0.329 0.704l0.010-0.018c-0.14 0.237-0.281 0.44-0.434 0.632l0.009-0.011c-0.152 0.219-0.339 0.401-0.555 0.542l-0.008 0.005c-0.204 0.131-0.439 0.252-0.685 0.349l-0.027 0.009c-0.247 0.11-0.535 0.174-0.838 0.174-0.054 0-0.107-0.002-0.159-0.006l0.007 0c-0.318-0.025-0.608-0.123-0.859-0.278l0.008 0.005c-0.255-0.163-0.463-0.379-0.612-0.634l-0.005-0.009c-0.161-0.276-0.27-0.601-0.304-0.948l-0.001-0.010c-0.009-0.081-0.013-0.174-0.013-0.269 0-0.211 0.024-0.416 0.070-0.613l-0.004 0.018c0.076-0.328 0.168-0.609 0.279-0.88l-0.014 0.037c0.26-0.615 0.596-1.143 1.006-1.606l-0.005 0.006c0.422-0.471 0.889-0.887 1.399-1.246l0.026-0.017c0.058-0.039 0.107-0.077 0.154-0.118l-0.002 0.002c0.056-0.049 0.119-0.094 0.185-0.134l0.006-0.003q-0.213-0.61-0.436-0.694t-0.713 0.253c-0.611 0.409-1.141 0.867-1.61 1.383l-0.006 0.007c-0.463 0.516-0.861 1.105-1.171 1.745l-0.020 0.045c-0.135 0.262-0.239 0.566-0.295 0.887l-0.003 0.019c-0.036 0.194-0.057 0.417-0.057 0.645 0 0.114 0.005 0.227 0.015 0.338l-0.001-0.014c0.009 0.049 0.013 0.106 0.013 0.164 0 0.158-0.036 0.308-0.101 0.441l0.003-0.006c-0.104 0.18-0.248 0.326-0.421 0.429l-0.005 0.003c-0.192 0.101-0.416 0.168-0.653 0.189l-0.006 0c-0.012 0.001-0.026 0.001-0.040 0.001-0.22 0-0.421-0.080-0.577-0.212l0.001 0.001c-0.13-0.115-0.248-0.236-0.358-0.364l-0.004-0.005c-0.107-0.125-0.2-0.267-0.272-0.421l-0.005-0.011c-0.236-0.418-0.433-0.901-0.565-1.411l-0.009-0.042q-0.127-0.421-0.255-0.999t-0.233-1.148c-0.072-0.381-0.131-0.729-0.181-1.053s-0.082-0.56-0.096-0.715c-0.022-0.339-0.034-0.734-0.034-1.133 0-0.599 0.028-1.191 0.082-1.775l-0.006 0.075c0.095-1.013 0.305-1.945 0.62-2.828l-0.025 0.081c0.242-0.701 0.529-1.305 0.875-1.87l-0.024 0.041c0.363-0.595 0.778-1.109 1.25-1.563l0.003-0.002c0.386-0.36 0.817-0.681 1.282-0.951l0.034-0.018c0.454-0.26 0.987-0.439 1.555-0.503l0.019-0.002c0.131-0.022 0.283-0.035 0.437-0.035 0.23 0 0.453 0.028 0.666 0.080l-0.019-0.004c0.326 0.082 0.608 0.236 0.84 0.444l-0.002-0.002c0.234 0.212 0.416 0.477 0.529 0.776l0.005 0.014c0.094 0.251 0.148 0.54 0.148 0.842 0 0.079-0.004 0.157-0.011 0.234l0.001-0.010c-0.060 0.915-0.329 1.755-0.759 2.49l0.014-0.027q-0.762 1.39-1.637 2.727c-0.628 0.959-1.251 1.786-1.922 2.572l0.029-0.034q-0.34 0.381-0.712 0.726t-0.755 0.706c-0.098 0.082-0.183 0.175-0.252 0.279l-0.003 0.005c-0.037 0.069-0.059 0.151-0.059 0.239 0 0.046 0.006 0.091 0.018 0.133l-0.001-0.004c0.050 0.127 0.090 0.276 0.115 0.43l0.002 0.013c0.028 0.166 0.076 0.314 0.143 0.452l-0.004-0.010 0.17-0.337c0.403-0.764 0.847-1.423 1.354-2.028l-0.014 0.018c0.526-0.622 1.112-1.166 1.758-1.633l0.029-0.020c0.295-0.214 0.631-0.404 0.987-0.556l0.034-0.013c0.274-0.126 0.593-0.199 0.93-0.199 0.229 0 0.451 0.034 0.66 0.097l-0.016-0.004c0.527 0.166 0.961 0.5 1.249 0.939l0.005 0.009c0.056 0.085 0.107 0.165 0.152 0.242 0.058 0.102 0.114 0.188 0.176 0.27l-0.005-0.007c0.070-0.018 0.127-0.036 0.182-0.056l-0.012 0.004c0.057-0.022 0.106-0.047 0.151-0.078l-0.003 0.002c0.090-0.057 0.194-0.114 0.303-0.163l0.016-0.006c0.124-0.054 0.229-0.11 0.329-0.174l-0.009 0.006c0.026-0.027 0.058-0.048 0.093-0.063l0.002-0.001c0.036-0.014 0.082-0.035 0.138-0.062l0.341-0.168c0.099-0.051 0.219-0.101 0.342-0.142l0.019-0.006q0.679-0.25 0.955 0.253zM97.822 17.844q-0.086 0.485-0.152 0.947t-0.149 0.947c0.014 0.028 0.056 0.050 0.127 0.063 0.027-0.043 0.060-0.088 0.095-0.137s0.067-0.095 0.096-0.137q0.724-1.053 1.435-2.085t1.414-2.085c0.124-0.204 0.248-0.446 0.357-0.697l0.015-0.040c0.107-0.253 0.216-0.505 0.33-0.758 0.040-0.091 0.073-0.196 0.094-0.307l0.001-0.009c0.021-0.112 0.039-0.224 0.054-0.337 0.011-0.036 0.017-0.077 0.017-0.12 0-0.112-0.043-0.214-0.113-0.291l0 0c-0.061-0.040-0.136-0.063-0.216-0.063-0.073 0-0.141 0.019-0.2 0.053l0.002-0.001c-0.142 0.056-0.287 0.12-0.436 0.19-0.158 0.075-0.294 0.16-0.42 0.257l0.005-0.004c-0.364 0.277-0.676 0.596-0.937 0.955l-0.009 0.013c-0.246 0.34-0.475 0.726-0.669 1.132l-0.019 0.045q-0.234 0.61-0.425 1.219c-0.113 0.342-0.216 0.762-0.29 1.192l-0.008 0.055zM103.203 26.034c0.098-0.267 0.187-0.588 0.249-0.919l0.006-0.039c0.056-0.315 0.099-0.643 0.127-0.979l-0.021-0.021c-0.014 0-0.036-0.014-0.063-0.042-0.204 0.215-0.399 0.445-0.581 0.685l-0.015 0.020c-0.173 0.229-0.335 0.487-0.475 0.76l-0.014 0.030c-0.123 0.2-0.225 0.431-0.294 0.675l-0.005 0.020c-0.027 0.103-0.043 0.222-0.043 0.344 0 0.001 0 0.003 0 0.004v-0c0.006 0.136 0.063 0.258 0.152 0.347v0c0.243-0.040 0.455-0.153 0.617-0.315v0c0.144-0.162 0.264-0.35 0.353-0.555l0.005-0.014z"></path>
<path fill="#1bb4ed" d="M116.835 19.866c0.136 0.093 0.235 0.232 0.275 0.395l0.001 0.005c0.012 0.044 0.019 0.095 0.019 0.148 0 0.126-0.039 0.242-0.105 0.339l0.001-0.002c-0.014 0.028-0.114 0.168-0.297 0.421-0.238 0.314-0.486 0.592-0.753 0.851l-0.002 0.002c-0.337 0.329-0.706 0.629-1.099 0.896l-0.028 0.018c-0.396 0.277-0.864 0.482-1.369 0.586l-0.024 0.004c-0.034 0.052-0.069 0.114-0.101 0.178l-0.005 0.011c-0.128 0.378-0.268 0.698-0.432 1.004l0.017-0.035c-0.172 0.322-0.375 0.599-0.611 0.844l0.001-0.001q-0.234 0.254-0.478 0.484c-0.161 0.152-0.339 0.291-0.528 0.413l-0.014 0.009c-0.343 0.267-0.781 0.428-1.256 0.428-0.437 0-0.842-0.136-1.176-0.369l0.007 0.004c-0.932-0.518-1.552-1.496-1.552-2.62 0-0.019 0-0.038 0.001-0.057l-0 0.003c0-0.002 0-0.004 0-0.006 0-0.232 0.016-0.46 0.046-0.683l-0.003 0.026c0.027-0.217 0.056-0.438 0.085-0.662 0.009-0.043 0.015-0.093 0.015-0.144 0-0.16-0.053-0.308-0.143-0.427l0.001 0.002c-0.341-0.418-0.576-0.934-0.658-1.5l-0.002-0.017c-0.014-0.11-0.023-0.237-0.023-0.366 0-0.379 0.071-0.742 0.2-1.075l-0.007 0.020c0.177-0.457 0.436-0.846 0.762-1.168l0-0c0.311-0.315 0.687-0.565 1.105-0.729l0.022-0.008c0.409-0.171 0.884-0.27 1.382-0.27 0.233 0 0.462 0.022 0.683 0.063l-0.023-0.004c0.040 0.014 0.086 0.021 0.134 0.021 0.001 0 0.003 0 0.004-0h0.138c0.007-0 0.015-0 0.023-0 0.199 0 0.388 0.039 0.562 0.109l-0.010-0.004c0.186 0.084 0.337 0.214 0.444 0.377l0.002 0.004c0.028 0.056 0.072 0.099 0.126 0.126l0.002 0.001c0.55 0.398 0.977 0.933 1.235 1.555l0.009 0.024c0.227 0.577 0.376 1.245 0.414 1.942l0.001 0.017v0.757c0.114-0.056 0.209-0.101 0.287-0.136 0.089-0.039 0.162-0.078 0.232-0.121l-0.009 0.005c0.222-0.118 0.414-0.251 0.589-0.403l-0.004 0.003c0.178-0.152 0.344-0.305 0.5-0.462q0.152-0.19 0.277-0.348c0.085-0.105 0.156-0.2 0.213-0.284 0.095-0.136 0.236-0.234 0.4-0.273l0.005-0.001c0.047-0.013 0.1-0.020 0.155-0.020 0.126 0 0.244 0.039 0.341 0.105l-0.002-0.001zM110.539 24.771c0.141-0.023 0.266-0.075 0.375-0.149l-0.003 0.002c0.14-0.088 0.262-0.186 0.372-0.295l-0 0c0.111-0.109 0.209-0.23 0.293-0.361l0.005-0.008c0.072-0.106 0.13-0.228 0.168-0.36l0.002-0.009q-0.489-0.042-0.968-0.095t-0.968-0.094c-0.031 0.118-0.049 0.253-0.049 0.393 0 0.103 0.010 0.205 0.029 0.303l-0.002-0.010c0.050 0.231 0.18 0.425 0.359 0.557l0.003 0.002c0.091 0.078 0.21 0.125 0.34 0.125 0.015 0 0.031-0.001 0.046-0.002l-0.002 0zM111.539 18.77c-0.184 0.186-0.352 0.389-0.501 0.607l-0.010 0.015c-0.156 0.223-0.308 0.478-0.441 0.744l-0.016 0.035c-0.112 0.217-0.23 0.488-0.334 0.766l-0.018 0.054c-0.083 0.216-0.157 0.473-0.208 0.739l-0.005 0.029c0.161 0.072 0.353 0.137 0.551 0.184l0.023 0.005c0.19 0.050 0.425 0.094 0.664 0.124l0.027 0.003c0.201 0.026 0.433 0.041 0.669 0.042h0.001c0.016 0.001 0.035 0.001 0.054 0.001 0.163 0 0.32-0.023 0.468-0.067l-0.012 0.003c0.088-0.269 0.139-0.579 0.139-0.9 0-0.028-0-0.056-0.001-0.083l0 0.004c-0.006-0.35-0.056-0.687-0.145-1.007l0.007 0.028c-0.084-0.312-0.208-0.585-0.369-0.833l0.007 0.011c-0.134-0.217-0.322-0.389-0.545-0.502l-0.008-0.004z"></path>
</svg>
